<svg xmlns="http://www.w3.org/2000/svg" width="48" height="48" viewBox="0 0 48 48" role="img" aria-labelledby="title">
  <title id="title">vBiminiParts toolbar icon</title>
  <style>
    .vt-op{fill:none;stroke:#4a60ff;stroke-width:2;stroke-linecap:round;stroke-linejoin:round}
    .vt-soft{fill:none;stroke:#7f7f7f;stroke-width:1.5;stroke-linecap:round;stroke-linejoin:round;opacity:.65}
    .vt-fill{fill:#8c96ff;stroke:#231f20;stroke-width:1.25;stroke-linejoin:round}
    .vt-node{fill:#fff;stroke:#231f20;stroke-width:1.4}
    .vt-dot{fill:#4a60ff;stroke:#231f20;stroke-width:1}
  </style>
  <svg fill="none" fill-rule="evenodd" stroke="black" stroke-width="0.501" stroke-linejoin="bevel" stroke-miterlimit="10" font-family="Times New Roman" font-size="16" style="font-variant-ligatures:none" xmlns:xlink="http://www.w3.org/1999/xlink" xmlns="http://www.w3.org/2000/svg" version="1.1" overflow="visible" width="40" height="40" viewBox="0 -36 36 36" x="2" y="2">
 <defs>
  <linearGradient id="LinearGradient" gradientUnits="userSpaceOnUse" x1="0" y1="0" x2="-17.13" y2="18.99" gradientTransform="translate(27.353 13.87)">
   <stop offset="0" stop-color="#6582fc" />
   <stop offset="1" stop-color="#becafc" />
  </linearGradient>
  <style type="text/css">@import url('https://themes.googleusercontent.com/fonts/css?family=Open Sans:400,600');</style>
 </defs>
 <g id="Layer 1" transform="scale(1 -1)">
  <path d="M 14.654,18.449 L 14.622,17.811 C 14.622,12.53 18.907,8.245 24.189,8.245 C 29.47,8.245 33.755,12.53 33.755,17.811 C 33.755,23.093 29.47,27.378 24.189,27.378 L 23.253,27.35 L 23.309,33.755 L 8.244,33.755 L 8.234,18.744 L 14.719,18.795 L 14.654,18.449 Z" stroke="none" stroke-width="0.75" stroke-opacity="0.996078" stroke-linejoin="miter" marker-start="none" marker-end="none" fill-opacity="0.996078" fill="url(#LinearGradient)" />
  <path d="M 4.726,4.515 L 4.726,5.983 L 18.675,5.983 L 18.675,4.515 L 4.726,4.515 Z" stroke-width="0.5" stroke="none" fill="#e10000" fill-rule="evenodd" marker-start="none" marker-end="none" fill-opacity="1.000000" />
  <path d="M 16.733,1.842 L 15.694,2.881 L 18.173,5.359 L 15.694,7.838 L 16.733,8.875 L 20.248,5.358 L 16.733,1.842 Z" stroke-width="0.5" stroke="none" fill="#e10000" fill-rule="evenodd" marker-start="none" marker-end="none" fill-opacity="1.000000" />
  <path d="M 4.538,5.159 L 4.538,16.18 C 4.538,16.585 4.866,16.914 5.272,16.914 C 5.677,16.914 6.006,16.585 6.006,16.18 L 6.006,5.159 C 6.006,4.753 5.677,4.425 5.272,4.425 C 4.866,4.425 4.538,4.753 4.538,5.159 Z" stroke-width="0.5" stroke="none" fill="#20b200" fill-rule="evenodd" marker-start="none" marker-end="none" fill-opacity="1.000000" />
  <path d="M 2.793,13.812 L 1.756,14.851 L 5.273,18.366 L 8.789,14.851 L 7.75,13.812 L 5.272,16.291 L 2.793,13.812 Z" stroke-width="0.5" stroke="none" fill="#20b200" fill-rule="evenodd" marker-start="none" marker-end="none" fill-opacity="1.000000" />
  <path d="M 15.75,33.075 L 15.75,19.5" fill="none" stroke-opacity="0.501961" stroke-width="1.5" stroke-linejoin="round" fill-opacity="0.501961" />
  <path d="M 8.925,26.25 L 22.501,26.25" fill="none" stroke-opacity="0.501961" stroke-width="1.5" stroke-linejoin="round" fill-opacity="0.501961" />
  <path d="M 23.251,27.067 L 23.251,9.068" fill="none" stroke-opacity="0.501961" stroke-width="1.5" stroke-linejoin="round" fill-opacity="0.501961" />
  <path d="M 15.225,18.75 L 33.151,18.75" fill="none" stroke-opacity="0.501961" stroke-width="1.5" stroke-linecap="round" stroke-linejoin="round" fill-opacity="0.501961" />
  <path d="M 13.871,17.816 L 13.881,18.039 L 7.482,17.989 L 7.493,34.506 L 24.064,34.506 L 24.007,28.123 L 24.176,28.129 C 29.883,28.129 34.504,23.508 34.504,17.812 C 34.504,12.116 29.883,7.496 24.188,7.496 C 18.491,7.496 13.871,12.116 13.871,17.816 Z M 33.004,17.812 C 33.004,22.679 29.054,26.629 24.199,26.629 L 22.495,26.578 L 22.551,33.006 L 8.992,33.006 L 8.983,19.5 L 15.623,19.553 L 15.399,18.361 L 15.371,17.803 L 15.416,16.91 C 15.868,12.466 19.624,8.996 24.188,8.996 C 29.054,8.996 33.004,12.945 33.004,17.812 Z" stroke-width="0.5" stroke="none" fill="#ffffff" fill-rule="evenodd" marker-start="none" marker-end="none" fill-opacity="1.000000" />
 </g>
</svg>
  <path class="vt-op" d="M7 39H41M12 33V42M24 34V43M36 33V42"/><path class="vt-fill" d="M14 35H22V40H14ZM26 35H34V40H26Z"/>
</svg>