<svg xmlns="http://www.w3.org/2000/svg" width="48" height="48" viewBox="0 0 48 48" role="img" aria-labelledby="title">
  <title id="title">vChamfer toolbar icon</title>
  <style>
    .vt-op{fill:none;stroke:#4a60ff;stroke-width:2;stroke-linecap:round;stroke-linejoin:round}
    .vt-soft{fill:none;stroke:#7f7f7f;stroke-width:1.5;stroke-linecap:round;stroke-linejoin:round;opacity:.65}
    .vt-fill{fill:#8c96ff;stroke:#231f20;stroke-width:1.25;stroke-linejoin:round}
    .vt-node{fill:#fff;stroke:#231f20;stroke-width:1.4}
    .vt-dot{fill:#4a60ff;stroke:#231f20;stroke-width:1}
  </style>
  <svg height="40" viewBox="0 0 48 48" width="40" xmlns="http://www.w3.org/2000/svg" xmlns:xlink="http://www.w3.org/1999/xlink" x="2" y="2"><clipPath id="a"><path clip-rule="evenodd" d="m0 0h36v36h-36z" /></clipPath><clipPath id="b"><path d="m16.499 16.523h15v15h-15z" /></clipPath><clipPath id="c"><path d="m4.494 6.019h26.998v25.497h-26.998z" /></clipPath><g clip-path="url(#a)" transform="matrix(1.3333333 0 0 -1.3333333 0 48)"><g clip-path="url(#b)" opacity=".498039"><path d="m30.01 16.523v13.511h-13.511v1.489h15v-15z" /></g><g clip-path="url(#c)" opacity=".996078"><path d="m28.515 6.019v9.568l-12.975 12.952h-11.046v2.977h12.277l14.721-14.694v-10.803z" /></g><path d="m8.247061 32.280061v-4.502122h-4.502122v4.502122z" fill="#fff" fill-rule="evenodd" /><path d="m3 27.033v5.99h5.99v-5.99zm4.501 1.489v3.012h-3.012v-3.012z" /><path d="m32.255061 9.772061v-4.502122h-4.502122v4.502122z" fill="#fff" fill-rule="evenodd" /><path d="m27.008 4.525v5.99h5.99v-5.99zm4.501 1.489v3.012h-3.012v-3.012z" /></g></svg>
  <path class="vt-op" d="M12 34L36 34M24 31V37"/><rect class="vt-node" x="9" y="31" width="6" height="6"/><rect class="vt-node" x="33" y="31" width="6" height="6"/>
</svg>