<svg xmlns="http://www.w3.org/2000/svg" width="48" height="48" viewBox="0 0 48 48" role="img" aria-labelledby="title">
  <title id="title">vGroup toolbar icon</title>
  <style>
    .vt-op{fill:none;stroke:#4a60ff;stroke-width:2;stroke-linecap:round;stroke-linejoin:round}
    .vt-soft{fill:none;stroke:#7f7f7f;stroke-width:1.5;stroke-linecap:round;stroke-linejoin:round;opacity:.65}
    .vt-fill{fill:#8c96ff;stroke:#231f20;stroke-width:1.25;stroke-linejoin:round}
    .vt-node{fill:#fff;stroke:#231f20;stroke-width:1.4}
    .vt-dot{fill:#4a60ff;stroke:#231f20;stroke-width:1}
  </style>
  <svg height="40" viewBox="0 0 48 48" width="40" xmlns="http://www.w3.org/2000/svg" xmlns:xlink="http://www.w3.org/1999/xlink" x="2" y="2"><clipPath id="a"><path clip-rule="evenodd" d="m0 0h36v36h-36z" /></clipPath><g clip-path="url(#a)" transform="matrix(1.3333333 0 0 -1.3333333 0 48)"><path d="m12.932 8.684c-3.265 0-5.914 2.649-5.914 5.914 0 3.059 2.328 5.58 5.309 5.882l.343.018-.119.246c-.299.708-.464 1.485-.464 2.302 0 3.264 2.649 5.913 5.914 5.913 3.264 0 5.913-2.649 5.913-5.913 0-.817-.166-1.594-.465-2.302l-.119-.246.343-.017c2.981-.303 5.31-2.823 5.31-5.883 0-3.264-2.65-5.914-5.914-5.914-2.04 0-3.84 1.035-4.904 2.608l-.165.273-.165-.274c-1.063-1.572-2.863-2.607-4.903-2.607z" fill="#f00" fill-rule="evenodd" /><path d="m4.504 14.598c0 3.27 1.865 6.108 4.592 7.504l.512.233-.035.711c0 4.652 3.774 8.427 8.428 8.427 4.652 0 8.427-3.775 8.427-8.427l-.037-.71.511-.233c2.727-1.396 4.595-4.233 4.595-7.505 0-4.653-3.776-8.428-8.428-8.428-1.82 0-3.505.578-4.881 1.556l-.188.152-.19-.152c-1.376-.979-3.06-1.556-4.878-1.556-4.654 0-8.428 3.774-8.428 8.428zm11.236-1.913 2.256 3.746 2.263-3.746.524-.605c.607-.551 1.409-.882 2.286-.882 1.875 0 3.4 1.524 3.4 3.4 0 1.536-1.026 2.839-2.429 3.257l-.605.12-4.022.2 1.727 3.57.19.613c.046.221.07.451.07.688 0 1.875-1.524 3.399-3.399 3.399-1.877 0-3.4-1.524-3.4-3.399 0-.238.023-.469.068-.69l.189-.611 1.723-3.56-4.019-.211-.604-.119c-1.402-.418-2.426-1.721-2.426-3.257 0-1.877 1.523-3.4 3.4-3.4.876 0 1.678.331 2.283.882z" /><path d="m17.156 14.598c0 3.265 2.649 5.914 5.913 5.914 3.265 0 5.914-2.649 5.914-5.914 0-3.264-2.649-5.913-5.914-5.913-3.264 0-5.913 2.649-5.913 5.913z" fill="#122877" fill-rule="evenodd" /><path d="m16.318 14.598c0 3.727 3.024 6.752 6.751 6.752s6.752-3.025 6.752-6.752-3.025-6.751-6.752-6.751-6.751 3.024-6.751 6.751zm11.827 0c0 2.802-2.274 5.076-5.076 5.076s-5.075-2.274-5.075-5.076 2.273-5.075 5.075-5.075 5.076 2.273 5.076 5.075z" /><path d="m7.018 14.598c0 3.264 2.649 5.913 5.914 5.913 3.264 0 5.913-2.649 5.913-5.913 0-3.265-2.649-5.914-5.913-5.914-3.265 0-5.914 2.649-5.914 5.914z" fill="#fff" fill-rule="evenodd" /><path d="m6.18 14.598c0 3.726 3.024 6.751 6.752 6.751 3.726 0 6.751-3.025 6.751-6.751 0-3.728-3.025-6.752-6.751-6.752-3.728 0-6.752 3.024-6.752 6.752zm11.827 0c0 2.801-2.274 5.075-5.075 5.075-2.803 0-5.076-2.274-5.076-5.075 0-2.803 2.273-5.076 5.076-5.076 2.801 0 5.075 2.273 5.075 5.076z" /><path d="m12.087 23.046c0 3.264 2.649 5.914 5.914 5.914 3.264 0 5.913-2.65 5.913-5.914 0-3.265-2.649-5.914-5.913-5.914-3.265 0-5.914 2.649-5.914 5.914z" fill="#6582fc" fill-rule="evenodd" /><path d="m11.249 23.046c0 3.726 3.024 6.752 6.752 6.752 3.726 0 6.751-3.026 6.751-6.752 0-3.728-3.025-6.752-6.751-6.752-3.728 0-6.752 3.024-6.752 6.752zm11.827 0c0 2.801-2.274 5.076-5.075 5.076-2.803 0-5.076-2.275-5.076-5.076 0-2.803 2.273-5.076 5.076-5.076 2.801 0 5.075 2.273 5.075 5.076z" /></g></svg>
  <path class="vt-op" d="M5 15V6H14M34 6H43V15M43 33V42H34M14 42H5V33"/>
</svg>