<?xml version="1.0" standalone="no"?>
<!DOCTYPE svg PUBLIC "-//W3C//DTD SVG 1.1//EN" "http://www.w3.org/Graphics/SVG/1.1/DTD/svg11.dtd">
<!--Generator: Xara Designer (www.xara.com), SVG filter version: 6.6.0.9-->
<svg fill="none" fill-rule="evenodd" stroke="black" stroke-width="0.501" stroke-linejoin="bevel" stroke-miterlimit="10" font-family="Times New Roman" font-size="16" style="font-variant-ligatures:none" xmlns:xlink="http://www.w3.org/1999/xlink" xmlns="http://www.w3.org/2000/svg" version="1.1" overflow="visible" width="36pt" height="36pt" viewBox="0 -36 36 36">
 <defs>
  <linearGradient id="LinearGradient" gradientUnits="userSpaceOnUse" x1="0" y1="0" x2="6.96" y2="0" gradientTransform="translate(16.161 7.526) rotate(-15.38) skewX(0.268929) scale(0.5)" spreadMethod="reflect">
   <stop offset="0" stop-color="#000000"/>
   <stop offset="0.1" stop-color="#101010"/>
   <stop offset="0.2" stop-color="#2b2b2b"/>
   <stop offset="0.3" stop-color="#5c5c5c"/>
   <stop offset="0.4" stop-color="#adadad"/>
   <stop offset="0.5" stop-color="#d1d1d1"/>
   <stop offset="0.6" stop-color="#e3e3e3"/>
   <stop offset="0.7" stop-color="#eeeeee"/>
   <stop offset="0.8" stop-color="#f6f6f6"/>
   <stop offset="0.9" stop-color="#fbfbfb"/>
   <stop offset="1" stop-color="#ffffff"/>
  </linearGradient>
  <linearGradient id="LinearGradient_1" gradientUnits="userSpaceOnUse" x1="0" y1="0" x2="6.967" y2="0" gradientTransform="translate(15.947 7.356) rotate(-15.3885) skewX(0.270122) scale(0.5)" spreadMethod="reflect">
   <stop offset="0" stop-color="#000000"/>
   <stop offset="0.1" stop-color="#101010"/>
   <stop offset="0.2" stop-color="#2b2b2b"/>
   <stop offset="0.3" stop-color="#5c5c5c"/>
   <stop offset="0.4" stop-color="#adadad"/>
   <stop offset="0.5" stop-color="#d1d1d1"/>
   <stop offset="0.6" stop-color="#e3e3e3"/>
   <stop offset="0.7" stop-color="#eeeeee"/>
   <stop offset="0.8" stop-color="#f6f6f6"/>
   <stop offset="0.9" stop-color="#fbfbfb"/>
   <stop offset="1" stop-color="#ffffff"/>
  </linearGradient>
  <linearGradient id="LinearGradient_2" gradientUnits="userSpaceOnUse" x1="0" y1="0" x2="-5.576" y2="1.48" gradientTransform="translate(20.942 6.218) scale(0.5)" spreadMethod="reflect">
   <stop offset="0" stop-color="#999999"/>
   <stop offset="1" stop-color="#ffffff"/>
  </linearGradient>
  <radialGradient id="RadialGradient" gradientUnits="userSpaceOnUse" cx="0" cy="0" r="11.408" gradientTransform="translate(24.131 23.129) rotate(162.393) scale(1 1.6136)">
   <stop offset="0" stop-color="#ffffff"/>
   <stop offset="1" stop-color="#000000"/>
  </radialGradient>
  <radialGradient id="RadialGradient_1" gradientUnits="userSpaceOnUse" cx="0" cy="0" r="11.408" gradientTransform="translate(24.434 22.589) rotate(162.393) scale(1 1.6136)">
   <stop offset="0" stop-color="#ffffff"/>
   <stop offset="1" stop-color="#000000"/>
  </radialGradient>
  <linearGradient id="LinearGradient_3" gradientUnits="userSpaceOnUse" x1="0" y1="0" x2="0.579" y2="4.233" gradientTransform="translate(19.523 5.867)">
   <stop offset="0" stop-color="#ffffff"/>
   <stop offset="1" stop-color="#000000"/>
  </linearGradient>
  <radialGradient id="RadialGradient_2" gradientUnits="userSpaceOnUse" cx="0" cy="0" r="8.888" gradientTransform="translate(23.612 20.829) rotate(50.0384) scale(1 0.85441)">
   <stop offset="0" stop-color="#ffffff"/>
   <stop offset="1" stop-color="#000000"/>
  </radialGradient>
  <linearGradient id="LinearGradient_4" gradientUnits="userSpaceOnUse" x1="0" y1="0" x2="-1.147" y2="-5.377" gradientTransform="translate(25.637 29.599)">
   <stop offset="0" stop-color="#7f7f7f"/>
   <stop offset="1" stop-color="#999999"/>
  </linearGradient>
  <linearGradient id="LinearGradient_5" gradientUnits="userSpaceOnUse" x1="0" y1="0" x2="3.401" y2="0" gradientTransform="translate(19.476 7.971) rotate(74.3785) skewX(-0.28548)">
   <stop offset="0" stop-color="#ffffff"/>
   <stop offset="1" stop-color="#000000"/>
  </linearGradient>
  <linearGradient id="LinearGradient_6" gradientUnits="userSpaceOnUse" x1="0" y1="0" x2="6.961" y2="0" gradientTransform="translate(12.172 5.851) rotate(12.6288) skewX(0.283065) scale(0.5)" spreadMethod="reflect">
   <stop offset="0" stop-color="#000000"/>
   <stop offset="0.1" stop-color="#101010"/>
   <stop offset="0.2" stop-color="#2b2b2b"/>
   <stop offset="0.3" stop-color="#5c5c5c"/>
   <stop offset="0.4" stop-color="#adadad"/>
   <stop offset="0.5" stop-color="#d1d1d1"/>
   <stop offset="0.6" stop-color="#e3e3e3"/>
   <stop offset="0.7" stop-color="#eeeeee"/>
   <stop offset="0.8" stop-color="#f6f6f6"/>
   <stop offset="0.9" stop-color="#fbfbfb"/>
   <stop offset="1" stop-color="#ffffff"/>
  </linearGradient>
  <linearGradient id="LinearGradient_7" gradientUnits="userSpaceOnUse" x1="0" y1="0" x2="6.969" y2="0" gradientTransform="translate(12.062 5.602) rotate(12.5886) skewX(0.255039) scale(0.5)" spreadMethod="reflect">
   <stop offset="0" stop-color="#000000"/>
   <stop offset="0.1" stop-color="#101010"/>
   <stop offset="0.2" stop-color="#2b2b2b"/>
   <stop offset="0.3" stop-color="#5c5c5c"/>
   <stop offset="0.4" stop-color="#adadad"/>
   <stop offset="0.5" stop-color="#d1d1d1"/>
   <stop offset="0.6" stop-color="#e3e3e3"/>
   <stop offset="0.7" stop-color="#eeeeee"/>
   <stop offset="0.8" stop-color="#f6f6f6"/>
   <stop offset="0.9" stop-color="#fbfbfb"/>
   <stop offset="1" stop-color="#ffffff"/>
  </linearGradient>
  <linearGradient id="LinearGradient_8" gradientUnits="userSpaceOnUse" x1="0" y1="0" x2="-5.619" y2="-1.311" gradientTransform="translate(17.008 6.941) scale(0.5)" spreadMethod="reflect">
   <stop offset="0" stop-color="#999999"/>
   <stop offset="1" stop-color="#ffffff"/>
  </linearGradient>
  <linearGradient id="LinearGradient_9" gradientUnits="userSpaceOnUse" x1="0" y1="0" x2="-1.44" y2="4.933" gradientTransform="translate(15.921 5.966)">
   <stop offset="0" stop-color="#ffffff"/>
   <stop offset="1" stop-color="#000000"/>
  </linearGradient>
  <radialGradient id="RadialGradient_3" gradientUnits="userSpaceOnUse" cx="0" cy="0" r="8.888" gradientTransform="translate(12.505 21.095) rotate(78.0327) scale(1 0.854298)">
   <stop offset="0" stop-color="#ffffff"/>
   <stop offset="1" stop-color="#000000"/>
  </radialGradient>
  <linearGradient id="LinearGradient_10" gradientUnits="userSpaceOnUse" x1="0" y1="0" x2="1.511" y2="-5.286" gradientTransform="translate(10.177 29.789)">
   <stop offset="0" stop-color="#7f7f7f"/>
   <stop offset="1" stop-color="#999999"/>
  </linearGradient>
  <linearGradient id="LinearGradient_11" gradientUnits="userSpaceOnUse" x1="0" y1="0" x2="3.401" y2="0" gradientTransform="translate(14.89 7.802) rotate(102.377) skewX(-0.324188)">
   <stop offset="0" stop-color="#ffffff"/>
   <stop offset="1" stop-color="#000000"/>
  </linearGradient>
  <style type="text/css">@import url('https://themes.googleusercontent.com/fonts/css?family=Open Sans:400,600');</style>
 </defs>
 <g id="Layer 1" transform="scale(1 -1)">
  <g transform="matrix(0.882929759 -0.469493392 0.469466244 0.882952863 2.862739277 8.070204967)">
  <path d="M 10.491,9.204 C 10.11,10.041 10.08,11.019 9.635,11.828 C 9.134,12.735 8.375,13.499 7.63,14.234 C 6.729,15.122 5.468,15.659 4.664,16.625 C 3.654,17.838 2.771,19.245 2.431,20.772 C 2.089,22.316 2.155,24.024 2.7,25.538 C 3.293,27.19 4.461,28.69 5.825,29.866 C 6.851,30.753 8.128,31.436 9.454,31.775 C 11.046,32.181 12.771,32.164 14.362,31.841 C 15.68,31.571 16.95,30.991 18.007,30.212 C 19.053,29.443 19.974,28.451 20.543,27.313 C 21.268,25.866 21.62,24.189 21.531,22.571 C 21.449,21.102 20.735,19.707 20.177,18.324 C 19.792,17.381 19.069,16.551 18.811,15.573 C 18.531,14.507 18.648,13.391 18.654,12.301 C 18.655,11.688 18.842,11.074 18.759,10.463 C 18.713,10.11 18.62,9.743 18.422,9.435 C 18.081,8.918 17.564,8.501 17.025,8.165 C 16.441,7.796 15.768,7.543 15.088,7.388 C 14.439,7.244 13.751,7.157 13.104,7.259 C 12.424,7.368 11.723,7.587 11.214,8.019 C 10.854,8.322 10.685,8.786 10.491,9.204 Z" fill="#a4a4a4" stroke="none" stroke-width="0" marker-start="none" marker-end="none"/>
  <path d="M 12.48,5.065 C 12.988,4.914 13.253,4.713 13.673,4.652 C 14.347,4.551 15.059,4.591 15.731,4.742 C 16.36,4.889 16.967,5.162 17.507,5.51 C 17.885,5.751 18.221,6.055 18.496,6.399 C 18.692,6.639 18.795,6.8 18.954,7.2 C 18.984,7.279 19.1,7.175 19.129,7.116 C 19.222,6.938 19.081,6.71 18.998,6.525 C 18.848,6.193 18.622,5.888 18.352,5.636 C 17.996,5.311 17.56,5.056 17.106,4.873 C 16.298,4.544 15.419,4.315 14.549,4.288 C 14.041,4.27 13.527,4.351 13.055,4.522 C 12.86,4.592 12.717,4.663 12.523,4.842 C 12.449,4.907 12.381,5.097 12.48,5.065 Z" stroke="none" stroke-width="0" marker-start="none" marker-end="none" fill="url(#LinearGradient_6)"/>
  <path d="M 12.372,4.814 C 12.88,4.662 13.144,4.459 13.564,4.399 C 14.239,4.3 14.954,4.339 15.628,4.488 C 16.257,4.637 16.86,4.912 17.402,5.258 C 17.784,5.502 18.122,5.804 18.396,6.149 C 18.588,6.388 18.695,6.551 18.854,6.95 C 18.881,7.031 19,6.925 19.031,6.869 C 19.12,6.685 18.982,6.458 18.894,6.274 C 18.745,5.942 18.523,5.637 18.253,5.387 C 17.896,5.06 17.457,4.802 17.003,4.622 C 16.192,4.291 15.312,4.066 14.443,4.036 C 13.933,4.014 13.419,4.1 12.949,4.266 C 12.751,4.339 12.612,4.412 12.414,4.591 C 12.339,4.655 12.27,4.844 12.372,4.814 Z" stroke="none" stroke-width="0" marker-start="none" marker-end="none" fill="url(#LinearGradient_7)"/>
  <path d="M 18.43,5.318 C 18.322,5.214 18.215,5.117 18.099,5.018 C 17.568,4.59 16.909,4.29 16.239,4.103 C 15.575,3.916 14.861,3.843 14.178,3.919 C 13.673,3.981 13.189,4.18 12.753,4.412 C 12.5,4.541 12.251,4.689 12.083,4.91 C 11.97,5.061 11.95,5.261 11.877,5.439 C 11.838,5.537 11.81,5.634 11.76,5.727 C 11.68,5.871 11.502,5.968 11.465,6.13 C 11.424,6.283 11.564,6.452 11.522,6.608 C 11.482,6.758 11.273,6.833 11.239,6.984 C 11.2,7.137 11.344,7.301 11.317,7.46 C 11.293,7.58 11.163,7.668 11.144,7.784 C 11.135,7.837 11.125,7.9 11.133,7.954 L 11.148,7.99 L 11.09,8.044 C 11.019,8.12 10.958,8.205 10.901,8.289 C 14.234,6.868 16.909,7.473 18.828,10.39 C 18.817,10.302 18.802,10.213 18.783,10.123 L 18.753,10.004 L 18.801,9.982 C 18.86,9.893 18.807,9.764 18.832,9.667 C 18.872,9.51 18.994,9.379 19.02,9.22 C 19.044,9.075 18.971,8.928 19.01,8.785 C 19.048,8.642 19.219,8.539 19.246,8.387 C 19.272,8.256 19.176,8.123 19.198,7.987 C 19.205,7.894 19.281,7.817 19.305,7.726 C 19.346,7.573 19.37,7.41 19.36,7.25 C 19.346,6.965 19.308,6.669 19.18,6.401 C 18.999,6.014 18.743,5.642 18.43,5.318 Z M 18.716,9.854 L 18.753,10.004 L 18.749,10.01 L 18.716,9.854 Z M 11.217,7.926 L 11.15,7.994 L 11.148,7.99 L 11.217,7.926 Z" stroke="none" stroke-width="1.473" marker-start="none" marker-end="none" fill="url(#LinearGradient_8)"/>
  <path d="M 14.615,4.074 L 13.922,6.831" fill="none" stroke-opacity="0.854902" stroke="#ffffff" stroke-linecap="round" stroke-width="1.5" stroke-linejoin="round" fill-opacity="0.854902"/>
  <path d="M 18.866,5.826 L 18.174,8.582" fill="none" stroke-opacity="0.180392" stroke="#ffffff" stroke-linecap="round" stroke-width="1.5" stroke-linejoin="round" fill-opacity="0.180392"/>
  <mask id="TranspMask_6">
   <rect x="-10%" y="-10%" width="120%" height="120%" fill="url(#LinearGradient_9)" stroke="none"/>
  </mask>
  <path d="M 11.295,8.212 C 11.287,8.265 11.276,8.327 11.285,8.382 L 11.299,8.418 L 11.24,8.473 C 11.172,8.547 11.111,8.633 11.053,8.717 L 10.958,8.886 L 10.944,8.904 L 10.928,8.941 L 10.902,8.984 C 10.806,9.168 10.725,9.362 10.636,9.548 C 10.545,9.761 10.473,9.974 10.406,10.2 L 10.334,10.489 L 10.319,10.538 C 13.782,9.201 16.612,9.988 18.871,12.67 C 18.873,12.358 18.924,12.049 18.956,11.737 C 18.995,11.435 19.021,11.126 18.979,10.818 C 18.968,10.73 18.953,10.641 18.934,10.552 L 18.904,10.433 L 18.951,10.409 C 16.997,7.595 13.922,6.831 11.295,8.212 Z M 18.867,10.281 L 18.904,10.433 L 18.9,10.438 L 18.867,10.281 Z M 11.369,8.354 L 11.301,8.422 L 11.299,8.418 L 11.369,8.354 Z" stroke="none" fill="#000000" stroke-width="1.473" marker-start="none" marker-end="none" mask="url(#TranspMask_6)"/>
  <mask id="TranspMask_7">
   <rect x="-10%" y="-10%" width="120%" height="120%" fill="url(#RadialGradient_3)" stroke="none"/>
  </mask>
  <path d="M 8.999,12.346 C 8.6,12.836 8.146,13.288 7.695,13.731 C 6.791,14.622 5.517,15.166 4.706,16.137 C 4.454,16.442 4.206,16.761 3.975,17.084 L 3.773,17.404 L 3.636,17.586 L 3.439,17.929 L 3.328,18.105 L 3.283,18.197 C 10.348,15.276 16.447,16.948 21.718,22.13 L 21.622,21.499 L 21.622,21.499 L 21.599,21.355 L 21.548,21.034 L 21.545,21.017 L 21.214,19.958 L 21.065,19.598 L 21.011,19.429 C 20.793,18.901 20.564,18.374 20.35,17.856 C 20.16,17.379 19.879,16.929 19.612,16.48 C 19.349,16.029 19.103,15.577 18.973,15.087 C 18.846,14.602 19.234,13.44 18.787,13.612 C 15.245,14.978 12.004,14.412 8.999,12.346 Z" stroke="none" fill="#ffffff" stroke-width="1.473" marker-start="none" marker-end="none" mask="url(#TranspMask_7)"/>
  <mask id="TranspMask_8">
   <rect x="-10%" y="-10%" width="120%" height="120%" fill="url(#LinearGradient_10)" stroke="none"/>
  </mask>
  <path d="M 2.685,18.503 C 2.54,18.869 2.418,19.246 2.332,19.633 C 2.247,20.017 2.184,20.418 2.15,20.817 L 2.135,21.923 L 2.134,22.041 C 2.175,22.854 2.331,23.668 2.603,24.429 C 3.051,25.677 3.83,26.839 4.77,27.84 C 5.085,28.176 5.415,28.492 5.76,28.792 C 6.791,29.679 8.082,30.369 9.419,30.711 C 11.022,31.119 12.766,31.106 14.372,30.781 C 15.697,30.509 16.977,29.928 18.044,29.142 C 19.097,28.37 20.028,27.371 20.601,26.227 C 20.78,25.861 20.942,25.484 21.079,25.095 L 21.183,24.708 L 21.186,24.709 L 21.336,24.157 L 21.405,23.904 C 12.697,30.901 6.347,29.482 2.685,18.503 Z" stroke-opacity="0.498039" stroke="none" fill="#ffffff" stroke-width="1.473" marker-start="none" marker-end="none" mask="url(#TranspMask_8)"/>
  <path d="M 7.779,27.497 C 9.955,29.221 12.874,29.28 14.685,28.503 C 14.866,28.43 15.003,28.231 15.2,28.23 L 16.21,28.186 L 15.77,25.228 C 12.613,24.379 10.125,24.495 8.052,25.212 L 8.082,25.612 L 7.779,27.497 Z" stroke-opacity="0.498039" fill="#ffffff" stroke="none" stroke-width="0" marker-start="none" marker-end="none" fill-opacity="0.498039"/>
  <mask id="TranspMask_9">
   <rect x="-10%" y="-10%" width="120%" height="120%" fill="url(#LinearGradient_11)" stroke="none"/>
   <path d="M 18.485,5.305 C 18.38,5.199 18.272,5.1 18.156,5.006 C 17.624,4.576 16.964,4.275 16.298,4.089 C 15.634,3.903 14.923,3.83 14.241,3.91 C 13.736,3.968 13.256,4.166 12.814,4.398 C 12.566,4.526 12.314,4.678 12.148,4.895 C 12.033,5.048 12.011,5.246 11.941,5.427 C 11.905,5.519 11.874,5.619 11.824,5.714 C 11.744,5.856 11.569,5.953 11.532,6.114 C 11.49,6.265 11.628,6.436 11.586,6.59 C 11.547,6.74 11.341,6.816 11.304,6.968 C 11.267,7.121 11.406,7.285 11.38,7.442 C 11.358,7.563 11.23,7.647 11.21,7.767 C 11.199,7.82 11.191,7.879 11.2,7.935 L 11.214,7.972 L 11.155,8.028 C 11.085,8.103 11.024,8.184 10.968,8.268 L 10.87,8.443 L 10.855,8.46 L 10.839,8.493 L 10.815,8.538 C 10.72,8.722 10.639,8.916 10.554,9.1 C 10.458,9.309 10.386,9.531 10.32,9.753 L 10.25,10.039 L 10.232,10.09 C 10.145,10.429 10.07,10.772 9.963,11.098 L 9.915,11.218 L 9.92,11.216 L 9.843,11.423 C 9.799,11.528 9.75,11.633 9.693,11.735 C 9.188,12.648 8.427,13.417 7.675,14.154 C 6.769,15.046 5.499,15.586 4.689,16.556 C 4.436,16.861 4.19,17.18 3.958,17.505 L 3.756,17.824 L 3.621,18.007 L 3.425,18.346 L 3.314,18.523 L 3.266,18.618 L 3.171,18.786 C 3.031,19.051 2.904,19.323 2.796,19.597 C 2.649,19.965 2.529,20.341 2.443,20.724 C 2.357,21.114 2.296,21.512 2.262,21.915 L 2.246,23.016 L 2.245,23.132 C 2.287,23.948 2.441,24.76 2.715,25.519 C 3.163,26.764 3.938,27.925 4.877,28.925 C 5.191,29.26 5.522,29.576 5.865,29.872 C 6.899,30.764 8.185,31.453 9.521,31.792 C 11.124,32.201 12.863,32.187 14.465,31.863 C 15.79,31.59 17.071,31.009 18.134,30.227 C 19.187,29.454 20.116,28.455 20.688,27.313 C 20.869,26.946 21.031,26.57 21.165,26.182 L 21.27,25.795 L 21.271,25.797 L 21.422,25.246 L 21.492,24.991 C 21.66,24.186 21.726,23.359 21.68,22.548 L 21.583,21.913 L 21.582,21.913 L 21.56,21.769 L 21.511,21.45 L 21.505,21.432 L 21.18,20.377 L 21.028,20.013 L 20.973,19.847 C 20.759,19.316 20.523,18.794 20.314,18.274 C 20.12,17.798 19.843,17.351 19.576,16.902 C 19.314,16.454 19.066,15.999 18.937,15.507 C 18.656,14.435 18.773,13.312 18.779,12.216 C 18.779,11.908 18.827,11.6 18.862,11.292 C 18.899,10.985 18.924,10.676 18.883,10.369 C 18.873,10.279 18.857,10.19 18.839,10.1 L 18.81,9.988 L 18.858,9.959 C 18.914,9.872 18.861,9.746 18.887,9.648 C 18.926,9.49 19.045,9.359 19.077,9.2 C 19.099,9.059 19.029,8.908 19.063,8.767 C 19.102,8.619 19.267,8.519 19.301,8.366 C 19.326,8.239 19.232,8.105 19.25,7.971 C 19.26,7.878 19.335,7.799 19.36,7.709 C 19.399,7.554 19.423,7.393 19.416,7.235 C 19.4,6.947 19.363,6.653 19.237,6.387 C 19.054,5.995 18.795,5.625 18.485,5.305 Z M 18.768,9.835 L 18.81,9.988 L 18.805,9.991 L 18.768,9.835 Z M 11.285,7.908 L 11.214,7.977 L 11.214,7.972 L 11.285,7.908 Z" stroke-width="1.489" stroke="#ffffff" marker-start="none" marker-end="none" fill="none"/>
  </mask>
  <path d="M 18.485,5.305 C 18.38,5.199 18.272,5.1 18.156,5.006 C 17.624,4.576 16.964,4.275 16.298,4.089 C 15.634,3.903 14.923,3.83 14.241,3.91 C 13.736,3.968 13.256,4.166 12.814,4.398 C 12.566,4.526 12.314,4.678 12.148,4.895 C 12.033,5.048 12.011,5.246 11.941,5.427 C 11.905,5.519 11.874,5.619 11.824,5.714 C 11.744,5.856 11.569,5.953 11.532,6.114 C 11.49,6.265 11.628,6.436 11.586,6.59 C 11.547,6.74 11.341,6.816 11.304,6.968 C 11.267,7.121 11.406,7.285 11.38,7.442 C 11.358,7.563 11.23,7.647 11.21,7.767 C 11.199,7.82 11.191,7.879 11.2,7.935 L 11.214,7.972 L 11.155,8.028 C 11.085,8.103 11.024,8.184 10.968,8.268 L 10.87,8.443 L 10.855,8.46 L 10.839,8.493 L 10.815,8.538 C 10.72,8.722 10.639,8.916 10.554,9.1 C 10.458,9.309 10.386,9.531 10.32,9.753 L 10.25,10.039 L 10.232,10.09 C 10.145,10.429 10.07,10.772 9.963,11.098 L 9.915,11.218 L 9.92,11.216 L 9.843,11.423 C 9.799,11.528 9.75,11.633 9.693,11.735 C 9.188,12.648 8.427,13.417 7.675,14.154 C 6.769,15.046 5.499,15.586 4.689,16.556 C 4.436,16.861 4.19,17.18 3.958,17.505 L 3.756,17.824 L 3.621,18.007 L 3.425,18.346 L 3.314,18.523 L 3.266,18.618 L 3.171,18.786 C 3.031,19.051 2.904,19.323 2.796,19.597 C 2.649,19.965 2.529,20.341 2.443,20.724 C 2.357,21.114 2.296,21.512 2.262,21.915 L 2.246,23.016 L 2.245,23.132 C 2.287,23.948 2.441,24.76 2.715,25.519 C 3.163,26.764 3.938,27.925 4.877,28.925 C 5.191,29.26 5.522,29.576 5.865,29.872 C 6.899,30.764 8.185,31.453 9.521,31.792 C 11.124,32.201 12.863,32.187 14.465,31.863 C 15.79,31.59 17.071,31.009 18.134,30.227 C 19.187,29.454 20.116,28.455 20.688,27.313 C 20.869,26.946 21.031,26.57 21.165,26.182 L 21.27,25.795 L 21.271,25.797 L 21.422,25.246 L 21.492,24.991 C 21.66,24.186 21.726,23.359 21.68,22.548 L 21.583,21.913 L 21.582,21.913 L 21.56,21.769 L 21.511,21.45 L 21.505,21.432 L 21.18,20.377 L 21.028,20.013 L 20.973,19.847 C 20.759,19.316 20.523,18.794 20.314,18.274 C 20.12,17.798 19.843,17.351 19.576,16.902 C 19.314,16.454 19.066,15.999 18.937,15.507 C 18.656,14.435 18.773,13.312 18.779,12.216 C 18.779,11.908 18.827,11.6 18.862,11.292 C 18.899,10.985 18.924,10.676 18.883,10.369 C 18.873,10.279 18.857,10.19 18.839,10.1 L 18.81,9.988 L 18.858,9.959 C 18.914,9.872 18.861,9.746 18.887,9.648 C 18.926,9.49 19.045,9.359 19.077,9.2 C 19.099,9.059 19.029,8.908 19.063,8.767 C 19.102,8.619 19.267,8.519 19.301,8.366 C 19.326,8.239 19.232,8.105 19.25,7.971 C 19.26,7.878 19.335,7.799 19.36,7.709 C 19.399,7.554 19.423,7.393 19.416,7.235 C 19.4,6.947 19.363,6.653 19.237,6.387 C 19.054,5.995 18.795,5.625 18.485,5.305 Z M 18.768,9.835 L 18.81,9.988 L 18.805,9.991 L 18.768,9.835 Z M 11.285,7.908 L 11.214,7.977 L 11.214,7.972 L 11.285,7.908 Z" stroke-width="1.489" stroke="#231f20" marker-start="none" marker-end="none" mask="url(#TranspMask_9)"/>
  </g>
  <g transform="matrix(0.882955814 0.469494961 -0.469467813 0.882932710 1.261029185 -8.469489607)">
  <path d="M 16.447,11.273 C 16.501,12.189 16.936,13.067 16.921,13.988 C 16.905,15.027 16.595,16.057 16.281,17.056 C 15.903,18.263 15.042,19.328 14.786,20.56 C 14.464,22.104 14.344,23.762 14.761,25.269 C 15.183,26.794 16.045,28.271 17.236,29.351 C 18.534,30.532 20.271,31.308 22.028,31.706 C 23.349,32.007 24.798,32.011 26.129,31.686 C 27.722,31.298 29.238,30.474 30.49,29.441 C 31.528,28.584 32.377,27.476 32.946,26.294 C 33.508,25.122 33.856,23.813 33.824,22.541 C 33.784,20.923 33.308,19.279 32.469,17.89 C 31.708,16.633 30.422,15.735 29.279,14.776 C 28.497,14.124 27.47,13.731 26.782,12.989 C 26.035,12.18 25.614,11.138 25.109,10.174 C 24.821,9.63 24.697,9.002 24.338,8.501 C 24.132,8.212 23.876,7.931 23.558,7.752 C 23.013,7.456 22.361,7.329 21.729,7.286 C 21.038,7.235 20.326,7.327 19.654,7.509 C 19.011,7.688 18.365,7.933 17.841,8.328 C 17.291,8.742 16.776,9.266 16.529,9.886 C 16.354,10.323 16.421,10.811 16.447,11.273 Z" fill="#4a60ff" stroke="none" stroke-width="0" marker-start="none" marker-end="none"/>
  <path d="M 16.063,6.688 C 16.441,6.315 16.58,6.014 16.923,5.762 C 17.472,5.358 18.118,5.058 18.782,4.876 C 19.407,4.71 20.071,4.667 20.711,4.72 C 21.157,4.756 21.597,4.867 22.002,5.04 C 22.287,5.16 22.453,5.253 22.782,5.534 C 22.846,5.587 22.899,5.442 22.898,5.377 C 22.895,5.176 22.664,5.04 22.503,4.916 C 22.216,4.694 21.874,4.531 21.516,4.435 C 21.048,4.315 20.545,4.294 20.058,4.345 C 19.19,4.435 18.307,4.646 17.525,5.03 C 17.068,5.253 16.653,5.565 16.316,5.937 C 16.176,6.092 16.084,6.221 15.996,6.471 C 15.962,6.562 15.99,6.763 16.063,6.688 Z" stroke="none" stroke-width="0" marker-start="none" marker-end="none" fill="url(#LinearGradient)"/>
  <path d="M 15.849,6.517 C 16.228,6.145 16.365,5.84 16.708,5.59 C 17.257,5.186 17.907,4.885 18.571,4.699 C 19.196,4.536 19.859,4.495 20.5,4.547 C 20.951,4.582 21.391,4.691 21.796,4.868 C 22.078,4.987 22.247,5.082 22.575,5.358 C 22.638,5.418 22.693,5.268 22.693,5.204 C 22.687,5 22.458,4.864 22.293,4.743 C 22.008,4.52 21.667,4.355 21.312,4.261 C 20.842,4.14 20.334,4.118 19.849,4.173 C 18.977,4.261 18.095,4.477 17.313,4.856 C 16.854,5.077 16.439,5.395 16.102,5.761 C 15.963,5.919 15.872,6.05 15.783,6.299 C 15.746,6.391 15.775,6.59 15.849,6.517 Z" stroke="none" stroke-width="0" marker-start="none" marker-end="none" fill="url(#LinearGradient_1)"/>
  <path d="M 21.435,4.117 C 21.292,4.076 21.151,4.041 21.001,4.009 C 20.332,3.879 19.609,3.924 18.93,4.073 C 18.257,4.22 17.591,4.49 17.024,4.878 C 16.608,5.17 16.275,5.572 15.998,5.983 C 15.835,6.215 15.684,6.463 15.64,6.738 C 15.611,6.923 15.687,7.109 15.708,7.301 C 15.72,7.405 15.739,7.505 15.738,7.61 C 15.735,7.775 15.623,7.942 15.667,8.104 C 15.703,8.259 15.905,8.341 15.941,8.499 C 15.976,8.653 15.828,8.814 15.869,8.964 C 15.906,9.117 16.11,9.194 16.161,9.348 C 16.198,9.465 16.123,9.602 16.16,9.715 C 16.179,9.766 16.199,9.826 16.231,9.87 L 16.26,9.896 L 16.234,9.97 C 16.207,10.07 16.194,10.174 16.183,10.276 C 18.458,7.456 21.104,6.734 24.168,8.409 C 24.117,8.336 24.063,8.265 24.003,8.194 L 23.921,8.103 L 23.952,8.061 C 23.963,7.955 23.855,7.867 23.833,7.768 C 23.793,7.611 23.841,7.439 23.788,7.286 C 23.74,7.146 23.608,7.049 23.576,6.906 C 23.542,6.761 23.643,6.592 23.597,6.443 C 23.558,6.317 23.411,6.243 23.367,6.115 C 23.329,6.028 23.361,5.924 23.34,5.833 C 23.304,5.678 23.248,5.523 23.163,5.386 C 23.018,5.142 22.847,4.899 22.608,4.721 C 22.264,4.465 21.864,4.256 21.435,4.117 Z M 23.817,7.988 L 23.921,8.103 L 23.92,8.11 L 23.817,7.988 Z M 16.292,9.806 L 16.264,9.898 L 16.26,9.896 L 16.292,9.806 Z" stroke="none" stroke-width="1.473" marker-start="none" marker-end="none" fill="url(#LinearGradient_2)"/>
  <path d="M 17.483,4.81 L 18.166,7.57" fill="none" stroke-opacity="0.854902" stroke="#ffffff" stroke-linecap="round" stroke-width="1.5" stroke-linejoin="round" fill-opacity="0.854902"/>
  <path d="M 22.059,4.361 L 22.741,7.12" fill="none" stroke-opacity="0.180392" stroke="#ffffff" stroke-linecap="round" stroke-width="1.5" stroke-linejoin="round" fill-opacity="0.180392"/>
  <mask id="TranspMask">
   <rect x="-10%" y="-10%" width="120%" height="120%" fill="url(#RadialGradient)" stroke="none"/>
  </mask>
  <path d="M 16.144,11.815 C 16.199,12.731 16.634,13.608 16.619,14.529 C 16.601,15.567 16.293,16.597 15.979,17.597 C 15.601,18.803 14.74,19.869 14.483,21.1 C 14.162,22.644 14.042,24.301 14.457,25.809 C 14.882,27.334 15.741,28.811 16.933,29.891 C 18.232,31.071 19.968,31.848 21.724,32.247 C 23.046,32.548 24.494,32.551 25.825,32.225 C 27.42,31.838 28.937,31.014 30.188,29.981 C 31.226,29.124 32.075,28.016 32.643,26.833 C 33.206,25.662 33.554,24.354 33.522,23.082 C 33.481,21.465 33.005,19.821 32.167,18.431 C 31.406,17.173 30.12,16.276 28.977,15.317 C 28.194,14.664 27.168,14.272 26.479,13.53 C 25.732,12.721 25.313,11.679 24.806,10.715 C 24.519,10.171 24.394,9.543 24.035,9.042 C 23.828,8.753 23.574,8.472 23.256,8.293 C 22.711,7.998 22.06,7.87 21.426,7.827 C 20.737,7.776 20.024,7.868 19.352,8.05 C 18.71,8.228 18.062,8.474 17.538,8.87 C 16.99,9.284 16.473,9.807 16.226,10.426 C 16.05,10.863 16.118,11.352 16.144,11.815 Z" fill="#8c96ff" stroke="none" stroke-width="0" marker-start="none" marker-end="none" mask="url(#TranspMask)"/>
  <mask id="TranspMask_1">
   <rect x="-10%" y="-10%" width="120%" height="120%" fill="url(#RadialGradient_1)" stroke="none"/>
  </mask>
  <path d="M 16.447,11.275 C 16.502,12.191 16.938,13.067 16.921,13.988 C 16.905,15.027 16.596,16.058 16.283,17.056 C 15.903,18.263 15.043,19.328 14.786,20.56 C 14.465,22.104 14.345,23.761 14.762,25.269 C 15.185,26.795 16.046,28.271 17.237,29.351 C 18.536,30.531 20.271,31.307 22.028,31.707 C 23.35,32.008 24.799,32.011 26.129,31.685 C 27.723,31.298 29.239,30.475 30.491,29.441 C 31.529,28.584 32.378,27.476 32.947,26.293 C 33.509,25.122 33.857,23.814 33.825,22.542 C 33.785,20.924 33.308,19.281 32.47,17.892 C 31.709,16.634 30.423,15.736 29.28,14.777 C 28.496,14.124 27.471,13.732 26.783,12.99 C 26.036,12.181 25.616,11.139 25.11,10.174 C 24.821,9.631 24.697,9.003 24.34,8.503 C 24.132,8.212 23.878,7.932 23.559,7.753 C 23.014,7.458 22.362,7.33 21.73,7.286 C 21.04,7.235 20.327,7.328 19.655,7.51 C 19.013,7.688 18.366,7.934 17.842,8.33 C 17.293,8.745 16.777,9.267 16.531,9.887 C 16.354,10.323 16.421,10.812 16.447,11.275 Z" fill="#8c96ff" stroke="none" stroke-width="0" marker-start="none" marker-end="none" mask="url(#TranspMask_1)"/>
  <mask id="TranspMask_2">
   <rect x="-10%" y="-10%" width="120%" height="120%" fill="url(#LinearGradient_3)" stroke="none"/>
  </mask>
  <path d="M 16.494,10.022 C 16.513,10.073 16.533,10.133 16.565,10.176 L 16.594,10.203 L 16.569,10.277 C 16.542,10.377 16.528,10.481 16.517,10.581 L 16.513,10.776 L 16.51,10.798 L 16.513,10.838 L 16.509,10.888 C 16.512,11.096 16.531,11.305 16.539,11.512 C 16.559,11.741 16.596,11.964 16.643,12.195 L 16.716,12.483 L 16.725,12.533 C 19.155,9.728 22.022,9.094 25.277,10.401 C 25.133,10.125 25.032,9.829 24.914,9.538 C 24.807,9.253 24.684,8.969 24.503,8.715 C 24.451,8.643 24.397,8.571 24.338,8.501 L 24.255,8.41 L 24.286,8.368 C 21.24,6.801 18.166,7.57 16.494,10.022 Z M 24.151,8.294 L 24.255,8.41 L 24.254,8.417 L 24.151,8.294 Z M 16.627,10.113 L 16.598,10.205 L 16.594,10.203 L 16.627,10.113 Z" stroke="none" fill="#000000" stroke-width="1.473" marker-start="none" marker-end="none" mask="url(#TranspMask_2)"/>
  <mask id="TranspMask_3">
   <rect x="-10%" y="-10%" width="120%" height="120%" fill="url(#RadialGradient_2)" stroke="none"/>
  </mask>
  <path d="M 16.409,14.75 C 16.285,15.369 16.097,15.983 15.908,16.586 C 15.526,17.797 14.657,18.874 14.397,20.113 C 14.318,20.5 14.249,20.897 14.197,21.292 L 14.168,21.669 L 14.134,21.895 L 14.12,22.288 L 14.105,22.496 L 14.108,22.6 C 18.976,16.703 25.145,15.319 32.232,17.418 L 31.85,16.906 L 31.85,16.906 L 31.762,16.79 L 31.568,16.531 L 31.556,16.517 L 30.767,15.737 L 30.466,15.488 L 30.34,15.364 C 29.899,15.001 29.449,14.644 29.017,14.286 C 28.624,13.954 28.167,13.689 27.718,13.419 C 27.276,13.143 26.846,12.859 26.502,12.487 C 26.161,12.12 25.957,10.912 25.645,11.272 C 23.159,14.141 20.032,15.164 16.409,14.75 Z" stroke="none" fill="#ffffff" stroke-width="1.473" marker-start="none" marker-end="none" mask="url(#TranspMask_3)"/>
  <mask id="TranspMask_4">
   <rect x="-10%" y="-10%" width="120%" height="120%" fill="url(#LinearGradient_4)" stroke="none"/>
  </mask>
  <path d="M 13.723,23.152 C 13.767,23.542 13.837,23.932 13.942,24.313 C 14.047,24.694 14.18,25.077 14.339,25.446 L 14.844,26.43 L 14.898,26.533 C 15.317,27.232 15.836,27.878 16.433,28.423 C 17.415,29.313 18.647,29.974 19.949,30.416 C 20.383,30.565 20.825,30.689 21.268,30.791 C 22.597,31.09 24.06,31.095 25.401,30.769 C 27.008,30.377 28.541,29.546 29.807,28.505 C 30.85,27.643 31.706,26.529 32.28,25.335 C 32.847,24.159 33.199,22.837 33.168,21.559 C 33.155,21.15 33.122,20.743 33.06,20.337 L 32.969,19.946 L 32.972,19.945 L 32.847,19.387 L 32.788,19.132 C 28.385,29.395 22.112,31.126 13.723,23.152 Z" stroke-opacity="0.498039" stroke="none" fill="#ffffff" stroke-width="1.473" marker-start="none" marker-end="none" mask="url(#TranspMask_4)"/>
  <path d="M 22.444,28.702 C 25.175,29.201 27.779,27.883 29.013,26.347 C 29.139,26.196 29.167,25.959 29.341,25.865 L 30.212,25.352 L 28.434,22.945 C 25.248,23.678 23.106,24.949 21.611,26.555 L 21.827,26.894 L 22.444,28.702 Z" stroke-opacity="0.498039" fill="#ffffff" stroke="none" stroke-width="0" marker-start="none" marker-end="none" fill-opacity="0.498039"/>
  <mask id="TranspMask_5">
   <rect x="-10%" y="-10%" width="120%" height="120%" fill="url(#LinearGradient_5)" stroke="none"/>
   <path d="M 21.478,4.08 C 21.335,4.037 21.194,3.998 21.047,3.971 C 20.376,3.841 19.653,3.885 18.976,4.033 C 18.302,4.18 17.64,4.45 17.076,4.84 C 16.658,5.129 16.327,5.53 16.045,5.942 C 15.886,6.173 15.736,6.423 15.69,6.694 C 15.661,6.881 15.735,7.068 15.757,7.26 C 15.77,7.358 15.79,7.461 15.788,7.567 C 15.785,7.731 15.676,7.899 15.717,8.059 C 15.754,8.211 15.954,8.297 15.99,8.454 C 16.026,8.605 15.88,8.768 15.917,8.92 C 15.958,9.071 16.157,9.151 16.209,9.303 C 16.246,9.42 16.172,9.553 16.209,9.669 C 16.226,9.72 16.246,9.778 16.281,9.822 L 16.31,9.849 L 16.285,9.924 C 16.258,10.025 16.242,10.125 16.234,10.226 L 16.226,10.426 L 16.223,10.448 L 16.223,10.484 L 16.222,10.535 C 16.226,10.742 16.246,10.952 16.257,11.155 C 16.27,11.384 16.31,11.613 16.357,11.84 L 16.428,12.127 L 16.437,12.179 C 16.521,12.52 16.615,12.858 16.673,13.196 L 16.687,13.325 L 16.691,13.32 L 16.72,13.538 C 16.73,13.653 16.736,13.768 16.735,13.884 C 16.717,14.928 16.406,15.964 16.088,16.968 C 15.707,18.18 14.84,19.256 14.58,20.492 C 14.498,20.878 14.431,21.276 14.379,21.673 L 14.351,22.047 L 14.318,22.273 L 14.304,22.666 L 14.288,22.874 L 14.291,22.981 L 14.286,23.172 C 14.287,23.472 14.303,23.772 14.335,24.065 C 14.378,24.458 14.449,24.848 14.553,25.226 C 14.66,25.609 14.792,25.991 14.952,26.363 L 15.455,27.341 L 15.509,27.444 C 15.928,28.146 16.446,28.79 17.044,29.332 C 18.025,30.221 19.253,30.88 20.553,31.325 C 20.985,31.472 21.426,31.595 21.87,31.697 C 23.2,31.998 24.659,32.004 25.999,31.675 C 27.606,31.284 29.134,30.455 30.396,29.417 C 31.439,28.553 32.297,27.439 32.868,26.248 C 33.436,25.074 33.787,23.754 33.755,22.477 C 33.744,22.069 33.709,21.66 33.646,21.255 L 33.556,20.864 L 33.558,20.865 L 33.433,20.307 L 33.375,20.05 C 33.145,19.261 32.816,18.5 32.395,17.803 L 32.012,17.289 L 32.011,17.29 L 31.923,17.173 L 31.729,16.915 L 31.716,16.902 L 30.933,16.123 L 30.63,15.871 L 30.501,15.751 C 30.064,15.383 29.611,15.033 29.181,14.673 C 28.787,14.343 28.331,14.079 27.888,13.808 C 27.444,13.535 27.012,13.249 26.667,12.875 C 25.915,12.061 25.491,11.015 24.982,10.044 C 24.838,9.773 24.736,9.478 24.622,9.19 C 24.51,8.901 24.387,8.616 24.206,8.364 C 24.157,8.29 24.1,8.218 24.042,8.147 L 23.963,8.063 L 23.992,8.016 C 24.001,7.911 23.895,7.825 23.872,7.726 C 23.833,7.568 23.876,7.396 23.829,7.243 C 23.784,7.106 23.648,7.007 23.614,6.866 C 23.578,6.717 23.679,6.55 23.636,6.4 C 23.598,6.275 23.451,6.202 23.404,6.076 C 23.371,5.987 23.4,5.883 23.379,5.791 C 23.342,5.637 23.287,5.484 23.206,5.345 C 23.058,5.099 22.885,4.858 22.649,4.682 C 22.305,4.422 21.903,4.217 21.478,4.08 Z M 23.855,7.947 L 23.963,8.063 L 23.96,8.068 L 23.855,7.947 Z M 16.341,9.759 L 16.313,9.853 L 16.31,9.849 L 16.341,9.759 Z" stroke-width="1.489" stroke="#ffffff" marker-start="none" marker-end="none" fill="none"/>
  </mask>
  <path d="M 21.478,4.08 C 21.335,4.037 21.194,3.998 21.047,3.971 C 20.376,3.841 19.653,3.885 18.976,4.033 C 18.302,4.18 17.64,4.45 17.076,4.84 C 16.658,5.129 16.327,5.53 16.045,5.942 C 15.886,6.173 15.736,6.423 15.69,6.694 C 15.661,6.881 15.735,7.068 15.757,7.26 C 15.77,7.358 15.79,7.461 15.788,7.567 C 15.785,7.731 15.676,7.899 15.717,8.059 C 15.754,8.211 15.954,8.297 15.99,8.454 C 16.026,8.605 15.88,8.768 15.917,8.92 C 15.958,9.071 16.157,9.151 16.209,9.303 C 16.246,9.42 16.172,9.553 16.209,9.669 C 16.226,9.72 16.246,9.778 16.281,9.822 L 16.31,9.849 L 16.285,9.924 C 16.258,10.025 16.242,10.125 16.234,10.226 L 16.226,10.426 L 16.223,10.448 L 16.223,10.484 L 16.222,10.535 C 16.226,10.742 16.246,10.952 16.257,11.155 C 16.27,11.384 16.31,11.613 16.357,11.84 L 16.428,12.127 L 16.437,12.179 C 16.521,12.52 16.615,12.858 16.673,13.196 L 16.687,13.325 L 16.691,13.32 L 16.72,13.538 C 16.73,13.653 16.736,13.768 16.735,13.884 C 16.717,14.928 16.406,15.964 16.088,16.968 C 15.707,18.18 14.84,19.256 14.58,20.492 C 14.498,20.878 14.431,21.276 14.379,21.673 L 14.351,22.047 L 14.318,22.273 L 14.304,22.666 L 14.288,22.874 L 14.291,22.981 L 14.286,23.172 C 14.287,23.472 14.303,23.772 14.335,24.065 C 14.378,24.458 14.449,24.848 14.553,25.226 C 14.66,25.609 14.792,25.991 14.952,26.363 L 15.455,27.341 L 15.509,27.444 C 15.928,28.146 16.446,28.79 17.044,29.332 C 18.025,30.221 19.253,30.88 20.553,31.325 C 20.985,31.472 21.426,31.595 21.87,31.697 C 23.2,31.998 24.659,32.004 25.999,31.675 C 27.606,31.284 29.134,30.455 30.396,29.417 C 31.439,28.553 32.297,27.439 32.868,26.248 C 33.436,25.074 33.787,23.754 33.755,22.477 C 33.744,22.069 33.709,21.66 33.646,21.255 L 33.556,20.864 L 33.558,20.865 L 33.433,20.307 L 33.375,20.05 C 33.145,19.261 32.816,18.5 32.395,17.803 L 32.012,17.289 L 32.011,17.29 L 31.923,17.173 L 31.729,16.915 L 31.716,16.902 L 30.933,16.123 L 30.63,15.871 L 30.501,15.751 C 30.064,15.383 29.611,15.033 29.181,14.673 C 28.787,14.343 28.331,14.079 27.888,13.808 C 27.444,13.535 27.012,13.249 26.667,12.875 C 25.915,12.061 25.491,11.015 24.982,10.044 C 24.838,9.773 24.736,9.478 24.622,9.19 C 24.51,8.901 24.387,8.616 24.206,8.364 C 24.157,8.29 24.1,8.218 24.042,8.147 L 23.963,8.063 L 23.992,8.016 C 24.001,7.911 23.895,7.825 23.872,7.726 C 23.833,7.568 23.876,7.396 23.829,7.243 C 23.784,7.106 23.648,7.007 23.614,6.866 C 23.578,6.717 23.679,6.55 23.636,6.4 C 23.598,6.275 23.451,6.202 23.404,6.076 C 23.371,5.987 23.4,5.883 23.379,5.791 C 23.342,5.637 23.287,5.484 23.206,5.345 C 23.058,5.099 22.885,4.858 22.649,4.682 C 22.305,4.422 21.903,4.217 21.478,4.08 Z M 23.855,7.947 L 23.963,8.063 L 23.96,8.068 L 23.855,7.947 Z M 16.341,9.759 L 16.313,9.853 L 16.31,9.849 L 16.341,9.759 Z" stroke-width="1.489" stroke="#231f20" marker-start="none" marker-end="none" mask="url(#TranspMask_5)"/>
  </g>
  <rect x="21.751" y="2.251" width="12.015" height="14.98" stroke-width="1.5" stroke="#000000" fill="#ffffff" stroke-linecap="round" stroke-linejoin="miter"/>
  <path d="M 24,13.501 L 24,6.001 L 25.5,6.001 L 25.5,4.501 L 30,4.501 L 30,6.001 L 31.5,6.001 L 31.5,7.501 L 30,7.501 L 30,6.001 L 25.5,6.001 L 25.5,13.501 L 30,13.501 L 30,12.001 L 31.5,12.001 L 31.5,13.501 L 30,13.501 L 30,15.001 L 25.5,15.001 L 25.5,13.501 L 24,13.501 Z" fill="#000000" stroke-linejoin="miter" stroke-width="1.104" stroke="none" marker-start="none" marker-end="none"/>
 </g>
</svg>
