<svg xmlns="http://www.w3.org/2000/svg" width="48" height="48" viewBox="0 0 48 48" role="img" aria-labelledby="title">
  <title id="title">vMiddleCurve toolbar icon</title>
  <style>
    .vt-op{fill:none;stroke:#4a60ff;stroke-width:2;stroke-linecap:round;stroke-linejoin:round}
    .vt-soft{fill:none;stroke:#7f7f7f;stroke-width:1.5;stroke-linecap:round;stroke-linejoin:round;opacity:.65}
    .vt-fill{fill:#8c96ff;stroke:#231f20;stroke-width:1.25;stroke-linejoin:round}
    .vt-node{fill:#fff;stroke:#231f20;stroke-width:1.4}
    .vt-dot{fill:#4a60ff;stroke:#231f20;stroke-width:1}
  </style>
  <svg fill="none" fill-rule="evenodd" stroke="black" stroke-width="0.501" stroke-linejoin="bevel" stroke-miterlimit="10" font-family="Times New Roman" font-size="16" style="font-variant-ligatures:none" xmlns:xlink="http://www.w3.org/1999/xlink" xmlns="http://www.w3.org/2000/svg" version="1.1" overflow="visible" width="40" height="40" viewBox="0 -36 36 36" x="2" y="2">
 <defs>
  <style type="text/css">@import url('https://themes.googleusercontent.com/fonts/css?family=Open Sans:400,600');</style>
 </defs>
 <g id="Layer 1" transform="scale(1 -1)">
  <path d="M 11.659,2.882 C 11.607,2.941 11.536,2.999 11.518,3.078 C 11.502,3.147 11.471,3.221 11.452,3.29 C 11.388,3.522 11.382,3.867 11.403,4.107 C 11.507,5.284 12.322,6.349 13.245,7.033 C 14.977,8.316 17.284,8.707 19.395,8.5 C 20.505,8.391 21.594,8.108 22.571,7.561 C 23.777,6.886 24.769,5.77 25.041,4.386 C 25.103,4.068 25.139,3.636 25.091,3.316 C 25.08,3.246 25.055,3.171 25.047,3.102 C 25.038,3.025 24.976,2.955 24.934,2.892 C 24.914,2.863 24.886,2.818 24.867,2.788 C 24.843,2.82 24.82,2.854 24.796,2.887 C 24.604,3.152 24.557,3.468 24.428,3.765 C 24.343,3.961 24.266,4.149 24.166,4.339 C 24.035,4.587 23.88,4.809 23.709,5.03 C 23.547,5.24 23.355,5.427 23.157,5.602 C 22.058,6.573 20.531,6.928 19.082,7.027 L 18.481,7.055 L 17.454,7.018 C 17.107,6.99 16.762,6.946 16.419,6.88 C 14.967,6.598 13.347,5.918 12.499,4.64 C 12.269,4.294 12.124,3.963 12.007,3.566 C 11.928,3.299 11.904,3.025 11.743,2.788 L 11.659,2.882 Z" stroke-width="0.5" stroke="none" fill="#000000" fill-rule="evenodd" marker-start="none" marker-end="none" fill-opacity="1.000000" />
  <path d="M 27.01,7.881 C 26.721,8.087 26.54,8.406 26.301,8.665 C 26.137,8.843 25.983,9.014 25.809,9.183 C 25.582,9.404 25.327,9.593 25.071,9.778 C 24.828,9.954 24.548,10.106 24.281,10.241 C 22.704,11.039 20.789,11.189 19.054,11.135 C 16.691,11.15 13.792,11.05 11.686,9.847 C 11.193,9.565 10.759,9.198 10.376,8.781 C 10.272,8.668 10.172,8.55 10.075,8.431 C 9.912,8.231 9.775,8.022 9.539,7.898 L 9.515,8.012 C 9.507,8.047 9.48,8.152 9.479,8.184 L 9.495,8.286 C 9.523,8.487 9.583,8.646 9.646,8.836 C 9.84,9.421 10.321,10.025 10.762,10.446 C 11.519,11.169 12.577,11.677 13.568,11.983 C 14.909,12.397 16.279,12.562 17.665,12.612 L 19.052,12.628 L 19.996,12.624 C 22.261,12.537 24.697,11.883 26.182,10.118 C 26.56,9.669 26.875,9.159 27.056,8.598 C 27.095,8.477 27.12,8.378 27.144,8.253 C 27.151,8.214 27.167,8.176 27.168,8.136 L 27.137,7.936 L 27.117,7.804 C 27.081,7.829 27.046,7.855 27.01,7.881 Z" stroke-width="0.5" stroke="none" fill="#231f20" fill-rule="evenodd" marker-start="none" marker-end="none" fill-opacity="0.498039" />
  <path d="M 3.042,24.404 C 3.009,24.522 2.99,24.729 2.981,24.854 C 2.937,25.436 2.976,26.019 3.094,26.591 C 3.699,29.528 6.035,31.531 8.668,32.738 C 9.672,33.198 10.709,33.537 11.777,33.813 C 15.029,34.654 18.518,34.664 21.848,34.358 C 24.002,34.16 26.362,33.711 28.333,32.794 C 29.85,32.089 31.132,31.183 32.174,29.861 C 32.415,29.555 32.636,29.233 32.828,28.894 C 32.867,28.826 32.913,28.762 32.949,28.692 C 32.986,28.621 33.019,28.548 33.056,28.478 C 33.219,28.171 33.384,27.81 33.496,27.481 C 33.549,27.326 33.609,27.166 33.657,27.01 C 33.755,26.688 33.833,26.338 33.885,26.006 L 33.931,25.748 L 33.919,25.471 C 33.913,25.333 33.907,25.194 33.901,25.056 C 33.855,25.135 33.812,25.215 33.765,25.293 C 33.701,25.401 33.618,25.538 33.563,25.65 C 33.384,26.016 33.243,26.409 33.059,26.778 C 32.568,27.76 31.985,28.663 31.206,29.443 C 29.812,30.837 28.111,31.618 26.237,32.148 C 25.155,32.454 24.005,32.649 22.889,32.777 C 22.142,32.862 21.397,32.922 20.652,32.963 L 18.411,33.043 L 17.169,33.033 C 14.209,32.952 11.054,32.452 8.429,31.181 C 6.972,30.475 5.644,29.528 4.705,28.193 C 4.158,27.415 3.791,26.568 3.559,25.647 C 3.501,25.419 3.457,25.186 3.41,24.955 C 3.35,24.657 3.323,24.358 3.183,24.082 C 3.143,24.168 3.066,24.318 3.042,24.404 Z" stroke-width="0.5" stroke="none" fill="#000000" fill-rule="evenodd" marker-start="none" marker-end="none" fill-opacity="1.000000" />
  <path d="M 28.475,12.379 C 28.157,12.642 27.954,13.015 27.684,13.325 C 27.444,13.601 27.212,13.863 26.941,14.11 C 26.718,14.313 26.49,14.488 26.248,14.666 C 25.957,14.88 25.637,15.058 25.317,15.224 C 23.428,16.2 21.229,16.367 19.141,16.313 C 17.411,16.33 15.636,16.266 13.931,15.957 C 12.72,15.737 11.521,15.386 10.458,14.752 C 9.875,14.405 9.369,13.97 8.922,13.461 C 8.778,13.297 8.645,13.124 8.513,12.951 C 8.356,12.745 8.218,12.532 7.991,12.392 L 7.973,12.522 C 7.966,12.566 7.945,12.678 7.946,12.718 C 7.947,12.758 7.963,12.796 7.97,12.835 C 8.013,13.069 8.083,13.247 8.162,13.467 C 8.227,13.646 8.334,13.849 8.431,14.013 C 8.727,14.514 9.054,14.914 9.481,15.31 C 10.386,16.15 11.574,16.709 12.745,17.069 C 14.288,17.543 15.913,17.736 17.532,17.791 L 19.139,17.806 L 20.427,17.796 C 20.86,17.777 21.292,17.74 21.722,17.682 C 23.829,17.395 26.02,16.592 27.437,14.937 C 27.883,14.416 28.25,13.841 28.476,13.191 C 28.523,13.054 28.557,12.936 28.59,12.795 L 28.622,12.661 C 28.624,12.641 28.606,12.457 28.602,12.434 L 28.589,12.284 C 28.551,12.315 28.513,12.347 28.475,12.379 Z" stroke-width="0.5" stroke="none" fill="#231f20" fill-rule="evenodd" marker-start="none" marker-end="none" fill-opacity="0.498039" />
  <path d="M 30.235,16.996 C 30.13,17.132 30.017,17.331 29.922,17.48 C 29.752,17.747 29.572,18.007 29.383,18.26 C 28.714,19.154 27.933,19.88 26.987,20.474 C 25.322,21.519 23.338,21.972 21.393,22.085 C 20.738,22.123 20.111,22.103 19.458,22.096 C 18.818,22.089 18.183,22.099 17.541,22.077 C 14.845,21.983 11.885,21.629 9.537,20.196 C 8.717,19.696 8.047,19.059 7.458,18.305 C 7.287,18.086 7.131,17.854 6.978,17.623 C 6.868,17.457 6.751,17.233 6.631,17.083 C 6.559,16.993 6.439,16.885 6.355,16.8 L 6.341,16.96 C 6.335,17.02 6.318,17.145 6.321,17.201 C 6.324,17.255 6.356,17.365 6.368,17.422 C 6.423,17.679 6.505,17.894 6.589,18.14 C 6.667,18.368 6.791,18.618 6.908,18.829 C 7.255,19.452 7.635,19.952 8.138,20.457 C 9.172,21.495 10.577,22.211 11.956,22.667 C 13.744,23.258 15.666,23.503 17.569,23.573 L 19.453,23.59 L 20.96,23.581 C 21.468,23.558 21.974,23.513 22.477,23.441 C 25.019,23.076 27.519,22.035 29.159,19.989 C 29.688,19.328 30.115,18.598 30.386,17.794 C 30.444,17.622 30.486,17.471 30.527,17.295 C 30.54,17.239 30.561,17.184 30.567,17.126 C 30.579,17.004 30.553,16.793 30.549,16.662 C 30.452,16.763 30.319,16.888 30.235,16.996 Z" stroke-width="0.5" stroke="none" fill="#231f20" fill-rule="evenodd" marker-start="none" marker-end="none" fill-opacity="0.498039" />
  <path d="M 31.99,21.689 C 31.905,21.801 31.819,21.954 31.744,22.076 C 31.531,22.419 31.284,22.766 31.039,23.086 C 30.28,24.079 29.362,24.898 28.291,25.542 C 26.342,26.715 24.053,27.207 21.802,27.339 C 21.296,27.369 20.777,27.378 20.27,27.369 C 20.036,27.365 19.8,27.354 19.566,27.352 C 18.828,27.346 18.096,27.353 17.356,27.33 C 14.271,27.233 10.807,26.83 8.098,25.237 C 7.173,24.693 6.378,23.977 5.712,23.137 C 5.52,22.895 5.345,22.638 5.173,22.381 C 4.961,22.065 4.786,21.729 4.499,21.47 C 4.497,21.528 4.496,21.586 4.494,21.644 C 4.492,21.715 4.482,21.839 4.488,21.906 L 4.527,22.066 C 4.6,22.38 4.699,22.633 4.815,22.931 C 4.912,23.181 5.053,23.448 5.19,23.679 C 5.596,24.362 6.036,24.9 6.611,25.448 C 7.796,26.577 9.428,27.362 10.978,27.843 C 13.057,28.488 15.226,28.749 17.398,28.825 L 19.562,28.846 L 21.288,28.836 C 21.868,28.811 22.446,28.762 23.022,28.684 C 25.883,28.295 28.751,27.189 30.661,24.94 C 31.264,24.23 31.768,23.427 32.092,22.551 C 32.161,22.365 32.214,22.198 32.265,22.007 C 32.281,21.946 32.307,21.886 32.316,21.823 L 32.318,21.621 C 32.32,21.52 32.32,21.419 32.323,21.318 C 32.218,21.434 32.083,21.566 31.99,21.689 Z" stroke-width="0.5" stroke="none" fill="#231f20" fill-rule="evenodd" marker-start="none" marker-end="none" fill-opacity="0.498039" />
 </g>
</svg>
  <path class="vt-op" d="M5 25C15 16 31 31 43 20"/><path class="vt-soft" d="M9 11V36M39 10V34"/>
</svg>