<svg xmlns="http://www.w3.org/2000/svg" width="48" height="48" viewBox="0 0 48 48" role="img" aria-labelledby="title">
  <title id="title">vRectangle toolbar icon</title>
  <style>
    .vt-op{fill:none;stroke:#4a60ff;stroke-width:2;stroke-linecap:round;stroke-linejoin:round}
    .vt-soft{fill:none;stroke:#7f7f7f;stroke-width:1.5;stroke-linecap:round;stroke-linejoin:round;opacity:.65}
    .vt-fill{fill:#8c96ff;stroke:#231f20;stroke-width:1.25;stroke-linejoin:round}
    .vt-node{fill:#fff;stroke:#231f20;stroke-width:1.4}
    .vt-dot{fill:#4a60ff;stroke:#231f20;stroke-width:1}
  </style>
  <svg height="40" viewBox="0 0 48 48" width="40" xmlns="http://www.w3.org/2000/svg" xmlns:xlink="http://www.w3.org/1999/xlink" x="2" y="2"><clipPath id="a"><path clip-rule="evenodd" d="m0 0h36v36h-36z" /></clipPath><g clip-path="url(#a)" transform="matrix(1.3333333 0 0 -1.3333333 0 48)"><path d="m4.476 8.995v18.01h27.021v-18.01zm25.531 1.49v15.03h-24.041v-15.03z" /><path d="m3.745 12.742v-4.505h4.505v4.505z" fill="#fff" fill-rule="evenodd" /><path d="m3 7.492v5.995h5.995v-5.995zm4.505 1.49v3.015h-3.015v-3.015z" /><path d="m27.749 27.761v-4.505h4.505v4.505z" fill="#fff" fill-rule="evenodd" /><path d="m27.004 22.511v5.995h5.995v-5.995zm4.505 1.49v3.015h-3.015v-3.015z" /></g></svg>
  <path class="vt-op" d="M7 42H41M7 38V46M41 38V46M4 9V39M1 9H7M1 39H7"/>
</svg>