<svg xmlns="http://www.w3.org/2000/svg" width="48" height="48" viewBox="0 0 48 48" role="img" aria-labelledby="title">
  <title id="title">vSetPt toolbar icon</title>
  <style>
    .vt-op{fill:none;stroke:#4a60ff;stroke-width:2;stroke-linecap:round;stroke-linejoin:round}
    .vt-soft{fill:none;stroke:#7f7f7f;stroke-width:1.5;stroke-linecap:round;stroke-linejoin:round;opacity:.65}
    .vt-fill{fill:#8c96ff;stroke:#231f20;stroke-width:1.25;stroke-linejoin:round}
    .vt-node{fill:#fff;stroke:#231f20;stroke-width:1.4}
    .vt-dot{fill:#4a60ff;stroke:#231f20;stroke-width:1}
  </style>
  <svg fill="none" fill-rule="evenodd" stroke="black" stroke-width="0.501" stroke-linejoin="bevel" stroke-miterlimit="10" font-family="Times New Roman" font-size="16" style="font-variant-ligatures:none" xmlns:xlink="http://www.w3.org/1999/xlink" xmlns="http://www.w3.org/2000/svg" version="1.1" overflow="visible" width="40" height="40" viewBox="0 -36 36 36" x="2" y="2">
 <defs>
  <style type="text/css">@import url('https://themes.googleusercontent.com/fonts/css?family=Open Sans:400,600');</style>
 </defs>
 <g id="Layer 1" transform="scale(1 -1)">
  <path d="M 31.578,30.732 L 17.325,30.732 L 20.176,17.228 L 17.325,3.724 L 31.578,3.724 L 31.578,30.732 Z" fill="#6582fc" stroke="none" stroke-linejoin="miter" stroke-opacity="0.996078" stroke-width="1.488" marker-start="none" marker-end="none" fill-opacity="0.996078" />
  <path d="M 3.821,30.732 L 17.325,30.732 L 14.624,17.228 L 17.325,3.724 L 3.821,3.724 L 3.821,30.732 Z" fill="#6582fc" stroke="none" stroke-linejoin="miter" stroke-opacity="0.996078" stroke-width="1.488" marker-start="none" marker-end="none" fill-opacity="0.996078" />
  <path d="M 2.994,2.994 L 2.994,31.502 L 31.502,31.502 L 31.502,2.994 L 2.994,2.994 Z M 30.002,4.494 L 30.002,30.002 L 4.494,30.002 L 4.494,4.494 L 30.002,4.494 Z" stroke-width="0.5" stroke="none" fill="#231f20" fill-rule="evenodd" marker-start="none" marker-end="none" fill-opacity="0.996078" />
  <path d="M 16.598,3.562 L 13.597,17.066 C 13.574,17.172 13.574,17.283 13.597,17.389 L 16.598,30.893 C 16.77,31.665 17.879,31.665 18.051,30.893 L 21.052,17.389 C 21.075,17.283 21.075,17.172 21.052,17.066 L 18.051,3.562 C 17.879,2.79 16.77,2.79 16.598,3.562 Z M 17.325,7.153 L 19.563,17.228 L 17.325,27.302 L 15.086,17.228 L 17.325,7.153 Z" stroke-width="0.5" stroke="none" fill="#231f20" fill-rule="evenodd" marker-start="none" marker-end="none" fill-opacity="0.996078" />
  <path d="M 5.174,3.288 L 3.967,4.159 L 13.406,17.228 L 3.967,30.296 L 5.174,31.167 L 14.927,17.663 C 15.114,17.403 15.114,17.052 14.927,16.792 L 5.174,3.288 Z" stroke-width="0.5" stroke="none" fill="#231f20" fill-rule="evenodd" marker-start="none" marker-end="none" fill-opacity="0.498039" />
  <path d="M 30.241,3.267 L 19.738,16.771 C 19.529,17.039 19.529,17.416 19.738,17.684 L 30.241,31.188 L 31.416,30.275 L 21.268,17.228 L 31.416,4.18 L 30.241,3.267 Z" stroke-width="0.5" stroke="none" fill="#231f20" fill-rule="evenodd" marker-start="none" marker-end="none" fill-opacity="0.498039" />
  <g id="Group" stroke="none">
   <rect x="-2.25" y="-2.25" width="4.501" height="4.501" transform="translate(13.495 17.995) rotate(90)" fill="#ffffff" stroke-linejoin="miter" />
   <path d="M 10.5,15 L 10.5,20.989 L 16.489,20.989 L 16.489,15 L 10.5,15 Z M 15.001,16.488 L 15.001,19.501 L 11.988,19.501 L 11.988,16.488 L 15.001,16.488 Z" stroke-width="0.5" fill="#000000" fill-rule="evenodd" marker-start="none" marker-end="none" fill-opacity="1.000000" />
  </g>
  <g id="Group_1" stroke="none">
   <rect x="-2.25" y="-2.25" width="4.501" height="4.501" transform="translate(20.995 17.995) rotate(90)" fill="#ffffff" stroke-linejoin="miter" />
   <path d="M 18,15 L 18,20.989 L 23.989,20.989 L 23.989,15 L 18,15 Z M 22.501,16.488 L 22.501,19.501 L 19.488,19.501 L 19.488,16.488 L 22.501,16.488 Z" stroke-width="0.5" fill="#000000" fill-rule="evenodd" marker-start="none" marker-end="none" fill-opacity="1.000000" />
  </g>
 </g>
</svg>
  <path class="vt-soft" d="M6 34L35 24M8 40L35 24M13 29L35 24"/><path class="vt-op" d="M35 8V42"/><rect class="vt-node" x="32" y="21" width="6" height="6"/>
</svg>