<svg xmlns="http://www.w3.org/2000/svg" width="48" height="48" viewBox="0 0 48 48" role="img" aria-labelledby="title">
  <title id="title">vSplitAtCorners toolbar icon</title>
  <style>
    .vt-op{fill:none;stroke:#4a60ff;stroke-width:2;stroke-linecap:round;stroke-linejoin:round}
    .vt-soft{fill:none;stroke:#7f7f7f;stroke-width:1.5;stroke-linecap:round;stroke-linejoin:round;opacity:.65}
    .vt-fill{fill:#8c96ff;stroke:#231f20;stroke-width:1.25;stroke-linejoin:round}
    .vt-node{fill:#fff;stroke:#231f20;stroke-width:1.4}
    .vt-dot{fill:#4a60ff;stroke:#231f20;stroke-width:1}
  </style>
  <svg fill="none" fill-rule="evenodd" stroke="black" stroke-width="0.501" stroke-linejoin="bevel" stroke-miterlimit="10" font-family="Times New Roman" font-size="16" style="font-variant-ligatures:none" xmlns:xlink="http://www.w3.org/1999/xlink" xmlns="http://www.w3.org/2000/svg" version="1.1" overflow="visible" width="40" height="40" viewBox="0 -36 36 36" x="2" y="2">
 <defs>
	</defs>
 <g id="Layer 1" transform="scale(1 -1)">
  <g id="Group" fill-rule="evenodd" stroke="none" stroke-width="0.5" fill="#000000" fill-opacity="1.000000">
   <path d="M 12.002,4.501 L 12.002,5.989 L 13.502,5.989 L 13.502,4.501 L 12.002,4.501 Z" marker-start="none" marker-end="none" fill-opacity="1.000000" />
   <path d="M 4.5,4.501 L 4.5,5.989 L 10.501,5.989 L 10.501,4.501 L 4.5,4.501 Z" marker-start="none" marker-end="none" fill-opacity="1.000000" />
   <path d="M 22.503,4.501 L 22.503,5.989 L 24.004,5.989 L 24.004,4.501 L 22.503,4.501 Z" marker-start="none" marker-end="none" fill-opacity="1.000000" />
   <path d="M 15.001,4.501 L 15.001,5.989 L 21.003,5.989 L 21.003,4.501 L 15.001,4.501 Z" marker-start="none" marker-end="none" fill-opacity="1.000000" />
   <path d="M 25.503,4.501 L 25.503,5.989 L 31.504,5.989 L 31.504,4.501 L 25.503,4.501 Z" marker-start="none" marker-end="none" fill-opacity="1.000000" />
  </g>
  <g id="Group_1" stroke="none">
   <rect x="-1.5" y="-1.5" width="3" height="3" transform="translate(24.744 29.284) rotate(180)" fill="#ffffff" stroke-linejoin="miter" />
   <path d="M 22.5,27.04 L 22.5,31.528 L 26.988,31.528 L 26.988,27.04 L 22.5,27.04 Z M 25.5,28.528 L 25.5,30.04 L 23.988,30.04 L 23.988,28.528 L 25.5,28.528 Z" stroke-width="0.5" fill="#000000" fill-rule="evenodd" marker-start="none" marker-end="none" fill-opacity="1.000000" />
  </g>
  <g id="Group_2" stroke="none">
   <rect x="9.804" y="27.772" width="3" height="3" fill="#ffffff" stroke-linejoin="miter" />
   <path d="M 9.06,27.028 L 9.06,31.517 L 13.549,31.517 L 13.549,27.028 L 9.06,27.028 Z M 12.061,28.516 L 12.061,30.029 L 10.548,30.029 L 10.548,28.516 L 12.061,28.516 Z" stroke-width="0.5" fill="#000000" fill-rule="evenodd" marker-start="none" marker-end="none" fill-opacity="1.000000" />
  </g>
  <path d="M 16.555,7.51 L 16.555,21.514 L 18.043,21.514 L 18.043,7.51 L 16.555,7.51 Z" stroke-width="0.5" stroke="none" fill="#000000" fill-rule="evenodd" marker-start="none" marker-end="none" fill-opacity="0.996078" />
  <path d="M 13.549,20.975 L 17.273,25.529 L 21.001,20.974 L 13.549,20.975 Z" fill="#000000" stroke="none" stroke-width="0.75" stroke-linejoin="miter" marker-start="none" marker-end="none" />
  <path d="M 1.5,28.528 L 1.5,30.016 L 7.501,30.016 L 7.501,28.528 L 1.5,28.528 Z" stroke-width="0.5" stroke="none" fill="#000000" fill-rule="evenodd" marker-start="none" marker-end="none" fill-opacity="1.000000" />
  <path d="M 14.999,28.528 L 14.999,30.016 L 21.001,30.016 L 21.001,28.528 L 14.999,28.528 Z" stroke-width="0.5" stroke="none" fill="#000000" fill-rule="evenodd" marker-start="none" marker-end="none" fill-opacity="1.000000" />
  <path d="M 28.504,28.528 L 28.504,30.016 L 34.505,30.016 L 34.505,28.528 L 28.504,28.528 Z" stroke-width="0.5" stroke="none" fill="#000000" fill-rule="evenodd" marker-start="none" marker-end="none" fill-opacity="1.000000" />
 </g>
</svg>
  <path class="vt-op" d="M7 38L15 27L25 37L40 24"/><circle class="vt-dot" cx="15" cy="27" r="3"/><circle class="vt-dot" cx="25" cy="37" r="3"/>
</svg>