<svg xmlns="http://www.w3.org/2000/svg" width="48" height="48" viewBox="0 0 48 48" role="img" aria-labelledby="title">
  <title id="title">vTextFlip toolbar icon</title>
  <style>
    .vt-op{fill:none;stroke:#4a60ff;stroke-width:2;stroke-linecap:round;stroke-linejoin:round}
    .vt-soft{fill:none;stroke:#7f7f7f;stroke-width:1.5;stroke-linecap:round;stroke-linejoin:round;opacity:.65}
    .vt-fill{fill:#8c96ff;stroke:#231f20;stroke-width:1.25;stroke-linejoin:round}
    .vt-node{fill:#fff;stroke:#231f20;stroke-width:1.4}
    .vt-dot{fill:#4a60ff;stroke:#231f20;stroke-width:1}
  </style>
  <svg fill="none" fill-rule="evenodd" stroke="black" stroke-width="0.501" stroke-linejoin="bevel" stroke-miterlimit="10" font-family="Times New Roman" font-size="16" style="font-variant-ligatures:none" xmlns:xlink="http://www.w3.org/1999/xlink" xmlns="http://www.w3.org/2000/svg" version="1.1" overflow="visible" width="40" height="40" viewBox="0 -36 36 36" x="2" y="2">
 <defs>
  <linearGradient id="LinearGradient" gradientUnits="userSpaceOnUse" x1="0" y1="0" x2="-1.619" y2="19.441" gradientTransform="translate(25.457 6.929)">
   <stop offset="0" stop-color="#6582fc" />
   <stop offset="0.1" stop-color="#6a86fc" />
   <stop offset="0.2" stop-color="#718cfc" />
   <stop offset="0.3" stop-color="#7992fc" />
   <stop offset="0.4" stop-color="#839bfc" />
   <stop offset="0.5" stop-color="#92a6fc" />
   <stop offset="0.6" stop-color="#a0b1fc" />
   <stop offset="0.7" stop-color="#aabafc" />
   <stop offset="0.8" stop-color="#b2c0fc" />
   <stop offset="0.9" stop-color="#b9c6fc" />
   <stop offset="1" stop-color="#becafc" />
  </linearGradient>
  <linearGradient id="LinearGradient_1" gradientUnits="userSpaceOnUse" x1="0" y1="0" x2="6.311" y2="0" gradientTransform="translate(8.888 15.749)">
   <stop offset="0" stop-color="#ffffff" />
   <stop offset="0.1" stop-color="#fcfcfc" />
   <stop offset="0.2" stop-color="#f7f7f7" />
   <stop offset="0.3" stop-color="#f2f2f2" />
   <stop offset="0.4" stop-color="#ebebeb" />
   <stop offset="0.5" stop-color="#e2e2e2" />
   <stop offset="0.6" stop-color="#d9d9d9" />
   <stop offset="0.7" stop-color="#d2d2d2" />
   <stop offset="0.8" stop-color="#cdcdcd" />
   <stop offset="0.9" stop-color="#c8c8c8" />
   <stop offset="1" stop-color="#c5c5c5" />
  </linearGradient>
  <style type="text/css">@import url('https://themes.googleusercontent.com/fonts/css?family=Open Sans:400,600');</style>
 </defs>
 <g id="Layer 1" transform="scale(1 -1)">
  <g id="Group" stroke="none">
   <path d="M 21.745,29.243 L 21.745,5.244 L 30.744,5.244 L 27.744,8.243 L 32.245,12.744 L 26.244,18.743 L 29.245,21.743 L 21.745,29.243 Z" stroke-linejoin="miter" marker-start="none" marker-end="none" fill="url(#LinearGradient)" />
   <path d="M 21.001,4.5 L 21.001,31.039 L 30.297,21.742 L 27.296,18.743 L 33.297,12.744 L 28.796,8.243 L 32.54,4.5 L 21.001,4.5 Z M 28.947,5.988 L 26.691,8.242 L 31.192,12.743 L 25.191,18.742 L 28.192,21.743 L 22.489,27.446 L 22.489,5.988 L 28.947,5.988 Z" stroke-width="0.5" fill="#231f20" fill-rule="evenodd" marker-start="none" marker-end="none" fill-opacity="1.000000" />
  </g>
  <g id="Group_1" stroke="none">
   <path d="M 15.744,29.242 L 15.744,5.244 L 6.744,5.244 L 9.744,8.243 L 5.244,12.743 L 11.243,18.743 L 8.244,21.743 L 15.744,29.242 Z" stroke-linejoin="round" marker-start="none" marker-end="none" fill="url(#LinearGradient_1)" />
   <path d="M 6.218,5.77 L 8.691,8.243 L 4.717,12.216 C 4.427,12.507 4.427,12.978 4.717,13.269 L 10.19,18.743 L 7.717,21.217 C 7.427,21.507 7.427,21.978 7.717,22.269 L 15.217,29.768 C 15.685,30.235 16.488,29.902 16.488,29.242 L 16.488,5.244 C 16.488,4.833 16.154,4.5 15.744,4.5 L 6.744,4.5 C 6.083,4.5 5.75,5.302 6.218,5.77 Z M 15,5.988 L 15,27.445 L 9.296,21.742 L 11.769,19.268 C 12.059,18.978 12.059,18.507 11.769,18.216 L 6.296,12.743 L 10.27,8.769 C 10.56,8.478 10.56,8.007 10.269,7.716 L 8.54,5.988 L 15,5.988 Z" stroke-width="0.5" fill="#231f20" fill-rule="evenodd" marker-start="none" marker-end="none" fill-opacity="1.000000" />
  </g>
  <g id="Group_2" fill-rule="evenodd" stroke="none" stroke-width="0.5" fill="#231f20" fill-opacity="1.000000">
   <path d="M 18,31.501 L 18,33 L 19.488,33 L 19.488,31.501 L 18,31.501 Z" marker-start="none" marker-end="none" fill-opacity="1.000000" />
   <path d="M 18,28.5 L 18,30 L 19.488,30 L 19.488,28.5 L 18,28.5 Z" marker-start="none" marker-end="none" fill-opacity="1.000000" />
   <path d="M 18,25.5 L 18,27 L 19.488,27 L 19.488,25.5 L 18,25.5 Z" marker-start="none" marker-end="none" fill-opacity="1.000000" />
   <path d="M 18,22.5 L 18,24 L 19.488,24 L 19.488,22.5 L 18,22.5 Z" marker-start="none" marker-end="none" fill-opacity="1.000000" />
   <path d="M 18,19.5 L 18,21.001 L 19.488,21.001 L 19.488,19.5 L 18,19.5 Z" marker-start="none" marker-end="none" fill-opacity="1.000000" />
   <path d="M 18,16.5 L 18,18.001 L 19.488,18.001 L 19.488,16.5 L 18,16.5 Z" marker-start="none" marker-end="none" fill-opacity="1.000000" />
   <path d="M 18,13.5 L 18,15 L 19.488,15 L 19.488,13.5 L 18,13.5 Z" marker-start="none" marker-end="none" fill-opacity="1.000000" />
   <path d="M 18,10.501 L 18,12 L 19.488,12 L 19.488,10.501 L 18,10.501 Z" marker-start="none" marker-end="none" fill-opacity="1.000000" />
   <path d="M 18,7.501 L 18,9 L 19.488,9 L 19.488,7.501 L 18,7.501 Z" marker-start="none" marker-end="none" fill-opacity="1.000000" />
   <path d="M 18,4.5 L 18,6 L 19.488,6 L 19.488,4.5 L 18,4.5 Z" marker-start="none" marker-end="none" fill-opacity="1.000000" />
   <path d="M 18,1.5 L 18,3 L 19.488,3 L 19.488,1.5 L 18,1.5 Z" marker-start="none" marker-end="none" fill-opacity="1.000000" />
  </g>
 </g>
</svg>
  <path class="vt-op" d="M10 36L15 22L20 36M12 30H18M29 17C37 20 40 27 38 35M38 35L34 30M38 35L42 31"/>
</svg>