<svg xmlns="http://www.w3.org/2000/svg" width="48" height="48" viewBox="0 0 48 48" role="img" aria-labelledby="title">
  <title id="title">vTitle toolbar icon</title>
  <style>
    .vt-op{fill:none;stroke:#4a60ff;stroke-width:2;stroke-linecap:round;stroke-linejoin:round}
    .vt-soft{fill:none;stroke:#7f7f7f;stroke-width:1.5;stroke-linecap:round;stroke-linejoin:round;opacity:.65}
    .vt-fill{fill:#8c96ff;stroke:#231f20;stroke-width:1.25;stroke-linejoin:round}
    .vt-node{fill:#fff;stroke:#231f20;stroke-width:1.4}
    .vt-dot{fill:#4a60ff;stroke:#231f20;stroke-width:1}
  </style>
  <svg height="40" viewBox="0 0 48 48" width="40" xmlns="http://www.w3.org/2000/svg" xmlns:xlink="http://www.w3.org/1999/xlink" x="2" y="2"><clipPath id="a"><path clip-rule="evenodd" d="m0 0h36v36h-36z" /></clipPath><clipPath id="b"><path d="m18.788 2.8h6.053v22.092h-6.053z" /></clipPath><linearGradient id="c" gradientTransform="matrix(-.45 -11.287 11.287 -.45 21.011 23.151)" gradientUnits="userSpaceOnUse" spreadMethod="pad" x1="0" x2="1" y1="0" y2="0"><stop offset="0" stop-color="#fff" /><stop offset="1" stop-color="#fff" stop-opacity="0" /></linearGradient><mask id="d" height="1" maskUnits="userSpaceOnUse" width="1" x="0" y="0"><g clip-path="url(#b)"><path d="m18.788 2.8h6.053v22.092h-6.053z" fill="url(#c)" fill-rule="evenodd" /></g></mask><g clip-path="url(#a)" transform="matrix(1.3333333 0 0 -1.3333333 0 48)"><g fill-rule="evenodd"><path d="m9.725 6.817 3.046 2.361c-.069-2.56-1.585-2.704-3.046-2.361z" fill="#c8d5ff" /><path d="m18.788 24.889 3.008-.966c2.236-.718 3.141-3.428 3.759-5.962h.753v6.769l-21.057 6.768v-6.768h.752c.547 1.659 1.049 3.909 2.39 3.482l4.378-1.394v-17.881c0-1.237-.99-2.553-3.046-2.12v-.627l12.035-4.021v.628c-1.37.663-2.972 2.254-2.972 3.884z" fill="#6582fc" /><path d="m21.76 2.797v-.628l3.081 2.386v.627z" fill="#2c4fc8" /><path d="m24.841 5.182c-1.69.606-3.045 2.144-3.045 3.755v14.983l-3.008.969v-18.208c0-1.63 1.512-3.113 2.972-3.884z" fill="#304ab6" /><path d="m9.012 28.016-.619.196c-1.341.426-1.778-1.619-2.39-3.482l3.008 2.256z" fill="#122877" /><path d="m26.308 24.73 3.008 2.256-21.057 6.768-3.008-2.256z" fill="#c8d5ff" /><path d="m26.308 24.73v-6.769l3.008 2.257v6.768z" fill="#304ab6" /></g><path d="m21.579 23.265-.748.238-.729.307-.687.439-.627.638.875.186.817-.017.775-.149.756-.216z" /><path d="m45.965 16.027-2.422 6.328h-.039c.045-.501.068-1.097.068-1.787v-4.541h-.767v7.138h1.25l2.261-5.888h.039l2.28 5.888h1.241v-7.138h-.831v4.599c0 .528.023 1.101.069 1.719h-.039l-2.442-6.318z" /><path d="m55.002 16.027-.161.762h-.039c-.267-.336-.533-.563-.798-.681-.266-.119-.597-.179-.994-.179-.53 0-.946.137-1.247.41-.301.274-.452.663-.452 1.167 0 1.081.864 1.648 2.593 1.7l.908.029v.332c0 .42-.09.73-.271.93s-.47.3-.867.3c-.446 0-.95-.136-1.513-.41l-.249.62c.263.144.552.256.866.337.314.082.629.122.945.122.638 0 1.111-.141 1.418-.425.308-.283.462-.737.462-1.362v-3.652zm-1.831.571c.505 0 .901.139 1.189.415.288.277.432.664.432 1.162v.484l-.81-.034c-.645-.023-1.109-.123-1.394-.301-.285-.177-.427-.453-.427-.827 0-.293.088-.516.266-.669.177-.153.425-.23.744-.23z" /><path d="m59.412 15.929c-.775 0-1.374.239-1.799.716-.425.476-.637 1.151-.637 2.024 0 .895.215 1.586.646 2.075.432.488 1.046.732 1.844.732.257 0 .514-.028.771-.083s.459-.12.606-.195l-.249-.689c-.18.072-.375.131-.586.179-.212.047-.399.07-.562.07-1.087 0-1.631-.693-1.631-2.08 0-.657.133-1.162.398-1.513.266-.352.659-.528 1.179-.528.446 0 .904.096 1.372.288v-.717c-.358-.186-.808-.279-1.352-.279z" /><g mask="url(#d)"><path d="m24.841 5.185c-1.69.606-3.045 2.144-3.045 3.755v14.983l-3.008.969v-18.208c0-1.63 1.512-3.113 2.972-3.884z" fill="#122877" fill-rule="evenodd" /></g><path d="m21.528 1.536-11.998 3.922c-.307.101-.514.386-.514.708l-.001.677c-.001.245.119.474.32.614l2.689 1.869v17.09l-2.269.622v-.054c0-.234-.11-.455-.298-.595l-3.008-2.256c-.129-.097-.286-.149-.447-.149h-.752c-.412 0-.746.334-.746.746v6.768c0 .234.11.455.298.596l3.008 2.256c.193.145.445.188.676.114l21.057-6.768c.308-.099.517-.386.517-.71l.001-6.768c.001-.235-.11-.456-.298-.597l-3.008-2.257c-.129-.097-.286-.149-.447-.149h-.754c-.36 0-.669.256-.734.61-.472 2.551-1.172 4.187-2.117 4.946l-.162.101v-13.91l.063-.564c.238-1.265 1.072-2.038 2.445-2.517.299-.105.5-.387.5-.704v-.648c0-.235-.111-.456-.299-.597l-3.043-2.283c-.194-.146-.448-.188-.679-.113zm.094 1.539 2.226 1.686c-1.624.77-2.702 2.08-2.799 4.141v.035 15.041c0 .459.412.809.865.736 2.287-.371 3.454-2.643 4.117-5.408l.113-.535 2.425 1.819v5.852l-20.173 6.483-2.4-1.8v-5.467l2.268 1.701.002.658c0 .491.469.848.943.718l3.758-1.03c.324-.089.549-.384.549-.719v-18.049c0-.245-.12-.474-.321-.613l-2.44-1.697z" /></g></svg>
  <rect class="vt-op" x="5" y="7" width="38" height="34" rx="2"/><path class="vt-soft" d="M9 34H39"/>
</svg>