<svg xmlns="http://www.w3.org/2000/svg" width="48" height="48" viewBox="0 0 48 48" role="img" aria-labelledby="title">
  <title id="title">vToggleControlPoints toolbar icon</title>
  <style>
    .vt-op{fill:none;stroke:#4a60ff;stroke-width:2;stroke-linecap:round;stroke-linejoin:round}
    .vt-soft{fill:none;stroke:#7f7f7f;stroke-width:1.5;stroke-linecap:round;stroke-linejoin:round;opacity:.65}
    .vt-fill{fill:#8c96ff;stroke:#231f20;stroke-width:1.25;stroke-linejoin:round}
    .vt-node{fill:#fff;stroke:#231f20;stroke-width:1.4}
    .vt-dot{fill:#4a60ff;stroke:#231f20;stroke-width:1}
  </style>
  <svg height="40" viewBox="0 0 48 48" width="40" xmlns="http://www.w3.org/2000/svg" xmlns:xlink="http://www.w3.org/1999/xlink" x="2" y="2"><clipPath id="a"><path clip-rule="evenodd" d="m0 0h36v36h-36z" /></clipPath><g clip-path="url(#a)" transform="matrix(1.3333333 0 0 -1.3333333 0 48)"><path d="m25.785 1.738-2.793 1.025c1.279 3.485 1.411 7.363.127 11.023-2.9 8.261-11.982 12.37-20.326 9.112l-1.083 2.773c9.87 3.852 20.744-1.005 24.218-10.9 1.526-4.352 1.36-8.942-.143-13.033z" /><path d="m15.754061 33.756061v-4.502122h-4.502122v4.502122z" fill="#fff" fill-rule="evenodd" /><path d="m10.508 28.51v5.989h5.989v-5.989zm4.501 1.488v3.013h-3.013v-3.013z" /><path d="m33.756061 15.754061v-4.502122h-4.502122v4.502122z" fill="#fff" fill-rule="evenodd" /><path d="m28.51 10.508v5.989h5.989v-5.989zm4.501 1.488v3.013h-3.013v-3.013z" /><g fill-rule="evenodd"><path d="m19.503354 27.004354v-1.500708h-1.500708v1.500708z" /><path d="m22.503354 24.003354v-1.500708h-1.500708v1.500708z" /><path d="m25.504354 21.003354v-1.500708h-1.500708v1.500708z" /><path d="m28.504354 18.003354v-1.500708h-1.500708v1.500708z" /><path d="m31.505354 9.001354v-1.500708h-1.500708v1.500708z" /><path d="m31.505354 6.001354v-1.500708h-1.500708v1.500708z" /><path d="m31.505354 3.000354v-1.500708h-1.500708v1.500708z" /><path d="m9.001354 31.505354v-1.500708h-1.500708v1.500708z" /><path d="m6.001354 31.505354v-1.500708h-1.500708v1.500708z" /><path d="m3.000354 31.505354v-1.500708h-1.500708v1.500708z" /></g></g></svg>
  <path class="vt-op" d="M5 36C12 16 21 18 27 29S38 30 43 13"/><path class="vt-soft" d="M5 36L13 10L29 38L43 13"/>
</svg>