<svg fill="none" fill-rule="evenodd" stroke="black" stroke-width="0.501" stroke-linejoin="bevel" stroke-miterlimit="10" xmlns="http://www.w3.org/2000/svg" width="36pt" height="36pt" viewBox="0 -36 36 36">
  <defs><linearGradient id="partsBlue" x1="0" y1="0" x2="1" y2="1"><stop offset="0" stop-color="#e1e4ff"/><stop offset="0.55" stop-color="#8c96ff"/><stop offset="1" stop-color="#4a60ff"/></linearGradient></defs>
  <g transform="scale(1 -1)">
    <path d="M4.5 32H10.5V14H4.5Z" fill="url(#partsBlue)" stroke="#231f20" stroke-width="1.2"/>
    <path d="M25.5 32H31.5V14H25.5Z" fill="url(#partsBlue)" stroke="#231f20" stroke-width="1.2"/>
    <path d="M11.5 9.5C13.5 5.7 21.8 5.7 24.5 9.5L22 14C20.4 11.8 15.8 11.8 14 14Z" fill="url(#partsBlue)" stroke="#231f20" stroke-width="1.2" stroke-linejoin="round"/>
    <path d="M11.5 23H17M11.5 23L15 26M11.5 23L15 20M24.5 23H19M24.5 23L21 26M24.5 23L21 20" stroke="#4a60ff" stroke-width="1.4" stroke-linecap="round"/>
    <path d="M2.25 29.75V34.25H6.75V29.75ZM5.25 31.25V32.75H3.75V31.25ZM29.25 29.75V34.25H33.75V29.75ZM32.25 31.25V32.75H30.75V31.25Z" fill="#231f20" stroke="none"/>
  </g>
</svg>
